<mxfile host="app.diagrams.net" agent="Mozilla/5.0 (Macintosh; Intel Mac OS X 10_15_7) AppleWebKit/537.36 (KHTML, like Gecko) Chrome/136.0.0.0 Safari/537.36 Edg/136.0.0.0" version="27.0.9">
  <diagram name="第 1 页" id="D4_CteJNsBiUG60mO8cd">
    <mxGraphModel dx="4825" dy="3675" grid="1" gridSize="10" guides="1" tooltips="1" connect="1" arrows="1" fold="1" page="1" pageScale="1" pageWidth="827" pageHeight="1169" math="0" shadow="0">
      <root>
        <mxCell id="0" />
        <mxCell id="1" parent="0" />
        <mxCell id="LVIn592RbWe3t4gDvWVq-1" value="图例" style="fillColor=none;strokeColor=#5A6C86;verticalAlign=top;fontStyle=0;fontColor=#5A6C86;whiteSpace=wrap;html=1;strokeWidth=3;" vertex="1" parent="1">
          <mxGeometry x="896" y="580" width="219" height="140" as="geometry" />
        </mxCell>
        <mxCell id="LVIn592RbWe3t4gDvWVq-2" value="" style="fillColor=none;strokeColor=#5A6C86;verticalAlign=top;fontStyle=0;fontColor=#5A6C86;whiteSpace=wrap;html=1;strokeWidth=5;" vertex="1" parent="1">
          <mxGeometry x="1825" y="2944" width="200" height="654" as="geometry" />
        </mxCell>
        <mxCell id="LVIn592RbWe3t4gDvWVq-3" value="" style="fillColor=none;strokeColor=#5A6C86;verticalAlign=top;fontStyle=0;fontColor=#5A6C86;whiteSpace=wrap;html=1;strokeWidth=5;" vertex="1" parent="1">
          <mxGeometry x="2245" y="2413.5" width="440" height="259" as="geometry" />
        </mxCell>
        <mxCell id="LVIn592RbWe3t4gDvWVq-4" value="" style="fillColor=none;strokeColor=#5A6C86;verticalAlign=top;fontStyle=0;fontColor=#5A6C86;whiteSpace=wrap;html=1;strokeWidth=5;" vertex="1" parent="1">
          <mxGeometry x="2245" y="1892.5" width="440" height="490" as="geometry" />
        </mxCell>
        <mxCell id="LVIn592RbWe3t4gDvWVq-5" value="" style="fillColor=none;strokeColor=#5A6C86;verticalAlign=top;fontStyle=0;fontColor=#5A6C86;whiteSpace=wrap;html=1;strokeWidth=5;" vertex="1" parent="1">
          <mxGeometry x="595" y="1170" width="980" height="1550" as="geometry" />
        </mxCell>
        <mxCell id="LVIn592RbWe3t4gDvWVq-6" value="" style="fillColor=none;strokeColor=#5A6C86;verticalAlign=top;fontStyle=0;fontColor=#5A6C86;whiteSpace=wrap;html=1;" vertex="1" parent="1">
          <mxGeometry x="665" y="2138" width="150" height="230" as="geometry" />
        </mxCell>
        <mxCell id="LVIn592RbWe3t4gDvWVq-7" value="" style="fillColor=none;strokeColor=#5A6C86;verticalAlign=top;fontStyle=0;fontColor=#5A6C86;whiteSpace=wrap;html=1;strokeWidth=5;" vertex="1" parent="1">
          <mxGeometry x="1825" y="1879" width="200" height="800" as="geometry" />
        </mxCell>
        <mxCell id="LVIn592RbWe3t4gDvWVq-8" value="服务端打点平台" style="fillColor=none;strokeColor=#5A6C86;verticalAlign=top;fontStyle=0;fontColor=#5A6C86;whiteSpace=wrap;html=1;strokeWidth=5;direction=west;" vertex="1" parent="1">
          <mxGeometry x="615" y="2899" width="965" height="978" as="geometry" />
        </mxCell>
        <mxCell id="LVIn592RbWe3t4gDvWVq-9" value="" style="fillColor=none;strokeColor=#5A6C86;verticalAlign=top;fontStyle=0;fontColor=#5A6C86;whiteSpace=wrap;html=1;direction=west;" vertex="1" parent="1">
          <mxGeometry x="290" y="3174.5" width="150" height="470" as="geometry" />
        </mxCell>
        <mxCell id="LVIn592RbWe3t4gDvWVq-10" value="" style="edgeStyle=orthogonalEdgeStyle;rounded=0;orthogonalLoop=1;jettySize=auto;html=1;entryX=0;entryY=0.5;entryDx=0;entryDy=0;exitX=0.5;exitY=1;exitDx=0;exitDy=0;" edge="1" parent="1" source="LVIn592RbWe3t4gDvWVq-11" target="LVIn592RbWe3t4gDvWVq-14">
          <mxGeometry relative="1" as="geometry" />
        </mxCell>
        <mxCell id="LVIn592RbWe3t4gDvWVq-11" value="App" style="strokeColor=#dddddd;shadow=1;strokeWidth=1;rounded=1;absoluteArcSize=1;arcSize=2;labelPosition=center;verticalLabelPosition=middle;align=center;verticalAlign=bottom;spacingLeft=0;fontColor=#999999;fontSize=12;whiteSpace=wrap;spacingBottom=2;html=1;" vertex="1" parent="1">
          <mxGeometry x="370" y="2298" width="70" height="85" as="geometry" />
        </mxCell>
        <mxCell id="LVIn592RbWe3t4gDvWVq-12" value="" style="sketch=0;dashed=0;connectable=0;html=1;fillColor=#757575;strokeColor=none;shape=mxgraph.gcp2.phone;part=1;" vertex="1" parent="LVIn592RbWe3t4gDvWVq-11">
          <mxGeometry x="0.5" width="32" height="50" relative="1" as="geometry">
            <mxPoint x="-16" y="10" as="offset" />
          </mxGeometry>
        </mxCell>
        <mxCell id="LVIn592RbWe3t4gDvWVq-13" value="" style="edgeStyle=orthogonalEdgeStyle;rounded=0;orthogonalLoop=1;jettySize=auto;html=1;entryX=0;entryY=0.5;entryDx=0;entryDy=0;" edge="1" parent="1" source="LVIn592RbWe3t4gDvWVq-14" target="LVIn592RbWe3t4gDvWVq-25">
          <mxGeometry relative="1" as="geometry" />
        </mxCell>
        <mxCell id="LVIn592RbWe3t4gDvWVq-14" value="guru打点服务&lt;div&gt;——Nginx&lt;/div&gt;" style="rounded=0;whiteSpace=wrap;html=1;fillColor=#60a917;strokeColor=#2D7600;fontColor=#ffffff;" vertex="1" parent="1">
          <mxGeometry x="678" y="2524.5" width="120" height="60" as="geometry" />
        </mxCell>
        <mxCell id="LVIn592RbWe3t4gDvWVq-15" value="" style="rounded=0;orthogonalLoop=1;jettySize=auto;html=1;entryX=0;entryY=0.5;entryDx=0;entryDy=0;exitX=1;exitY=0.5;exitDx=0;exitDy=0;edgeStyle=orthogonalEdgeStyle;" edge="1" parent="1" source="LVIn592RbWe3t4gDvWVq-56" target="LVIn592RbWe3t4gDvWVq-28">
          <mxGeometry relative="1" as="geometry">
            <mxPoint x="2201" y="2745.07" as="sourcePoint" />
          </mxGeometry>
        </mxCell>
        <mxCell id="LVIn592RbWe3t4gDvWVq-16" value="" style="edgeStyle=orthogonalEdgeStyle;rounded=0;orthogonalLoop=1;jettySize=auto;html=1;exitX=0.5;exitY=0;exitDx=0;exitDy=0;entryX=0;entryY=0.5;entryDx=0;entryDy=0;" edge="1" parent="1" source="LVIn592RbWe3t4gDvWVq-56" target="LVIn592RbWe3t4gDvWVq-19">
          <mxGeometry relative="1" as="geometry" />
        </mxCell>
        <mxCell id="LVIn592RbWe3t4gDvWVq-17" value="" style="rounded=0;orthogonalLoop=1;jettySize=auto;html=1;exitX=0.5;exitY=1;exitDx=0;exitDy=0;entryX=0;entryY=0.5;entryDx=0;entryDy=0;edgeStyle=orthogonalEdgeStyle;" edge="1" parent="1" source="LVIn592RbWe3t4gDvWVq-28" target="LVIn592RbWe3t4gDvWVq-94">
          <mxGeometry relative="1" as="geometry">
            <mxPoint x="2406" y="2371.5" as="sourcePoint" />
            <mxPoint x="2526" y="2681.5" as="targetPoint" />
            <Array as="points">
              <mxPoint x="2395" y="3150" />
            </Array>
          </mxGeometry>
        </mxCell>
        <mxCell id="LVIn592RbWe3t4gDvWVq-18" value="" style="edgeStyle=orthogonalEdgeStyle;rounded=0;orthogonalLoop=1;jettySize=auto;html=1;" edge="1" parent="1" source="LVIn592RbWe3t4gDvWVq-19" target="LVIn592RbWe3t4gDvWVq-21">
          <mxGeometry relative="1" as="geometry" />
        </mxCell>
        <mxCell id="LVIn592RbWe3t4gDvWVq-19" value="guru打点服务&lt;div&gt;——Sink程序&lt;/div&gt;" style="rounded=0;whiteSpace=wrap;html=1;fillColor=#60a917;strokeColor=#2D7600;fontColor=#ffffff;" vertex="1" parent="1">
          <mxGeometry x="2305" y="2037.5" width="120" height="60" as="geometry" />
        </mxCell>
        <mxCell id="LVIn592RbWe3t4gDvWVq-20" value="" style="edgeStyle=orthogonalEdgeStyle;rounded=0;orthogonalLoop=1;jettySize=auto;html=1;" edge="1" parent="1" source="LVIn592RbWe3t4gDvWVq-21" target="LVIn592RbWe3t4gDvWVq-97">
          <mxGeometry relative="1" as="geometry" />
        </mxCell>
        <mxCell id="LVIn592RbWe3t4gDvWVq-21" value="GCS" style="rounded=0;whiteSpace=wrap;html=1;" vertex="1" parent="1">
          <mxGeometry x="3021" y="2037.5" width="120" height="60" as="geometry" />
        </mxCell>
        <mxCell id="LVIn592RbWe3t4gDvWVq-22" value="" style="rounded=0;orthogonalLoop=1;jettySize=auto;html=1;exitX=1;exitY=0.5;exitDx=0;exitDy=0;entryX=0;entryY=0.5;entryDx=0;entryDy=0;edgeStyle=orthogonalEdgeStyle;" edge="1" parent="1" source="LVIn592RbWe3t4gDvWVq-112" target="LVIn592RbWe3t4gDvWVq-96">
          <mxGeometry relative="1" as="geometry">
            <mxPoint x="2823.0476190476193" y="991" as="targetPoint" />
          </mxGeometry>
        </mxCell>
        <mxCell id="LVIn592RbWe3t4gDvWVq-23" value="&lt;div&gt;服务端打点平台&lt;/div&gt;——分发worker" style="rounded=0;whiteSpace=wrap;html=1;fillColor=#60a917;strokeColor=#2D7600;fontColor=#ffffff;direction=west;" vertex="1" parent="1">
          <mxGeometry x="1410" y="3070.25" width="120" height="60" as="geometry" />
        </mxCell>
        <mxCell id="LVIn592RbWe3t4gDvWVq-24" value="Kafka-AWS" style="fillColor=none;strokeColor=#5A6C86;verticalAlign=top;fontStyle=0;fontColor=#5A6C86;whiteSpace=wrap;html=1;" vertex="1" parent="1">
          <mxGeometry x="864.5" y="2496" width="150" height="100" as="geometry" />
        </mxCell>
        <mxCell id="LVIn592RbWe3t4gDvWVq-25" value="Topic-总" style="rounded=0;whiteSpace=wrap;html=1;movable=1;resizable=1;rotatable=1;deletable=1;editable=1;locked=0;connectable=1;" vertex="1" parent="1">
          <mxGeometry x="889.5" y="2539.5" width="100" height="30" as="geometry" />
        </mxCell>
        <mxCell id="LVIn592RbWe3t4gDvWVq-26" style="edgeStyle=orthogonalEdgeStyle;rounded=0;orthogonalLoop=1;jettySize=auto;html=1;exitX=0.5;exitY=1;exitDx=0;exitDy=0;" edge="1" parent="1" source="LVIn592RbWe3t4gDvWVq-25" target="LVIn592RbWe3t4gDvWVq-25">
          <mxGeometry relative="1" as="geometry" />
        </mxCell>
        <mxCell id="LVIn592RbWe3t4gDvWVq-27" style="edgeStyle=orthogonalEdgeStyle;rounded=0;orthogonalLoop=1;jettySize=auto;html=1;exitX=0.5;exitY=1;exitDx=0;exitDy=0;" edge="1" parent="1" source="LVIn592RbWe3t4gDvWVq-25" target="LVIn592RbWe3t4gDvWVq-25">
          <mxGeometry relative="1" as="geometry" />
        </mxCell>
        <mxCell id="LVIn592RbWe3t4gDvWVq-28" value="Flink Jobs" style="fillColor=none;strokeColor=#5A6C86;verticalAlign=top;fontStyle=0;fontColor=#5A6C86;whiteSpace=wrap;html=1;dashed=1;" vertex="1" parent="1">
          <mxGeometry x="2330" y="2465.66" width="130" height="160" as="geometry" />
        </mxCell>
        <mxCell id="LVIn592RbWe3t4gDvWVq-29" value="Job-A" style="rounded=0;whiteSpace=wrap;html=1;movable=1;resizable=1;rotatable=1;deletable=1;editable=1;locked=0;connectable=1;fillColor=#60a917;strokeColor=#2D7600;fontColor=#ffffff;" vertex="1" parent="1">
          <mxGeometry x="2345" y="2495.66" width="100" height="30" as="geometry" />
        </mxCell>
        <mxCell id="LVIn592RbWe3t4gDvWVq-30" value="Job-B" style="rounded=0;whiteSpace=wrap;html=1;movable=1;resizable=1;rotatable=1;deletable=1;editable=1;locked=0;connectable=1;fillColor=#60a917;strokeColor=#2D7600;fontColor=#ffffff;" vertex="1" parent="1">
          <mxGeometry x="2345" y="2535.66" width="100" height="30" as="geometry" />
        </mxCell>
        <mxCell id="LVIn592RbWe3t4gDvWVq-31" value="……" style="rounded=0;whiteSpace=wrap;html=1;movable=1;resizable=1;rotatable=1;deletable=1;editable=1;locked=0;connectable=1;fillColor=#60a917;strokeColor=#2D7600;fontColor=#ffffff;" vertex="1" parent="1">
          <mxGeometry x="2345" y="2575.66" width="100" height="30" as="geometry" />
        </mxCell>
        <mxCell id="LVIn592RbWe3t4gDvWVq-32" value="" style="rounded=0;orthogonalLoop=1;jettySize=auto;html=1;exitX=1;exitY=0.5;exitDx=0;exitDy=0;entryX=0;entryY=0.5;entryDx=0;entryDy=0;" edge="1" parent="1" source="LVIn592RbWe3t4gDvWVq-23" target="LVIn592RbWe3t4gDvWVq-72">
          <mxGeometry relative="1" as="geometry">
            <mxPoint x="379.00000000000045" y="1740" as="sourcePoint" />
            <mxPoint x="1318" y="2396" as="targetPoint" />
          </mxGeometry>
        </mxCell>
        <mxCell id="LVIn592RbWe3t4gDvWVq-33" value="&lt;div&gt;服务端打点平台&lt;/div&gt;——分发worker" style="rounded=0;whiteSpace=wrap;html=1;fillColor=#60a917;strokeColor=#2D7600;fontColor=#ffffff;direction=west;" vertex="1" parent="1">
          <mxGeometry x="1410" y="3161.75" width="120" height="60" as="geometry" />
        </mxCell>
        <mxCell id="LVIn592RbWe3t4gDvWVq-34" value="" style="rounded=0;orthogonalLoop=1;jettySize=auto;html=1;exitX=1;exitY=0.5;exitDx=0;exitDy=0;entryX=0;entryY=0.5;entryDx=0;entryDy=0;edgeStyle=orthogonalEdgeStyle;" edge="1" parent="1" source="LVIn592RbWe3t4gDvWVq-93" target="LVIn592RbWe3t4gDvWVq-23">
          <mxGeometry relative="1" as="geometry">
            <mxPoint x="2895" y="1061" as="sourcePoint" />
            <mxPoint x="3129" y="1062" as="targetPoint" />
            <Array as="points">
              <mxPoint x="1870" y="3100" />
            </Array>
          </mxGeometry>
        </mxCell>
        <mxCell id="LVIn592RbWe3t4gDvWVq-35" value="" style="rounded=0;orthogonalLoop=1;jettySize=auto;html=1;exitX=1;exitY=0.5;exitDx=0;exitDy=0;entryX=0;entryY=0.5;entryDx=0;entryDy=0;edgeStyle=orthogonalEdgeStyle;" edge="1" parent="1" source="LVIn592RbWe3t4gDvWVq-94" target="LVIn592RbWe3t4gDvWVq-33">
          <mxGeometry relative="1" as="geometry">
            <mxPoint x="2944" y="1071" as="sourcePoint" />
            <mxPoint x="2774.0000000000005" y="1319.0000000000002" as="targetPoint" />
            <Array as="points">
              <mxPoint x="1645" y="3192" />
            </Array>
          </mxGeometry>
        </mxCell>
        <mxCell id="LVIn592RbWe3t4gDvWVq-36" value="" style="rounded=0;orthogonalLoop=1;jettySize=auto;html=1;exitX=1;exitY=0.5;exitDx=0;exitDy=0;entryX=0;entryY=0.5;entryDx=0;entryDy=0;" edge="1" parent="1" source="LVIn592RbWe3t4gDvWVq-96" target="LVIn592RbWe3t4gDvWVq-124">
          <mxGeometry relative="1" as="geometry">
            <mxPoint x="350" y="1952" as="sourcePoint" />
            <mxPoint x="449" y="1767" as="targetPoint" />
          </mxGeometry>
        </mxCell>
        <mxCell id="LVIn592RbWe3t4gDvWVq-37" value="&lt;div&gt;服务端打点平台&lt;/div&gt;——调度SQL？" style="rounded=0;whiteSpace=wrap;html=1;fillColor=#60a917;strokeColor=#2D7600;fontColor=#ffffff;" vertex="1" parent="1">
          <mxGeometry x="2520" y="2515.66" width="120" height="60" as="geometry" />
        </mxCell>
        <mxCell id="LVIn592RbWe3t4gDvWVq-38" value="" style="edgeStyle=orthogonalEdgeStyle;rounded=0;orthogonalLoop=1;jettySize=auto;html=1;entryX=0.5;entryY=0;entryDx=0;entryDy=0;exitX=0.5;exitY=1;exitDx=0;exitDy=0;" edge="1" parent="1" source="LVIn592RbWe3t4gDvWVq-97" target="LVIn592RbWe3t4gDvWVq-37">
          <mxGeometry relative="1" as="geometry">
            <mxPoint x="2380" y="1074.5" as="sourcePoint" />
            <mxPoint x="2380" y="1134.5" as="targetPoint" />
            <Array as="points">
              <mxPoint x="3422" y="2452.5" />
              <mxPoint x="2580" y="2452.5" />
            </Array>
          </mxGeometry>
        </mxCell>
        <mxCell id="LVIn592RbWe3t4gDvWVq-39" value="" style="rounded=0;orthogonalLoop=1;jettySize=auto;html=1;entryX=0;entryY=0.5;entryDx=0;entryDy=0;exitX=0.5;exitY=1;exitDx=0;exitDy=0;edgeStyle=orthogonalEdgeStyle;" edge="1" parent="1" source="LVIn592RbWe3t4gDvWVq-37" target="LVIn592RbWe3t4gDvWVq-93">
          <mxGeometry relative="1" as="geometry">
            <mxPoint x="1780" y="1341.5" as="sourcePoint" />
            <mxPoint x="1921" y="1491.5" as="targetPoint" />
            <Array as="points">
              <mxPoint x="2580" y="3100" />
            </Array>
          </mxGeometry>
        </mxCell>
        <mxCell id="LVIn592RbWe3t4gDvWVq-40" value="" style="rounded=0;orthogonalLoop=1;jettySize=auto;html=1;exitX=0.5;exitY=1;exitDx=0;exitDy=0;entryX=0;entryY=0.5;entryDx=0;entryDy=0;edgeStyle=orthogonalEdgeStyle;" edge="1" parent="1" source="LVIn592RbWe3t4gDvWVq-37" target="LVIn592RbWe3t4gDvWVq-94">
          <mxGeometry relative="1" as="geometry">
            <mxPoint x="2041" y="1491.5" as="sourcePoint" />
            <mxPoint x="2130" y="1253.5" as="targetPoint" />
            <Array as="points">
              <mxPoint x="2580" y="3150" />
            </Array>
          </mxGeometry>
        </mxCell>
        <mxCell id="LVIn592RbWe3t4gDvWVq-41" value="guru打点服务&lt;div&gt;——消息分发&lt;/div&gt;" style="rounded=0;whiteSpace=wrap;html=1;fillColor=#60a917;strokeColor=#2D7600;fontColor=#ffffff;" vertex="1" parent="1">
          <mxGeometry x="1085.5" y="2515.5" width="120" height="60" as="geometry" />
        </mxCell>
        <mxCell id="LVIn592RbWe3t4gDvWVq-42" value="" style="rounded=0;orthogonalLoop=1;jettySize=auto;html=1;entryX=0;entryY=0.5;entryDx=0;entryDy=0;exitX=1;exitY=0.5;exitDx=0;exitDy=0;" edge="1" parent="1" source="LVIn592RbWe3t4gDvWVq-24" target="LVIn592RbWe3t4gDvWVq-41">
          <mxGeometry relative="1" as="geometry">
            <mxPoint x="602.5" y="2589.5" as="sourcePoint" />
            <mxPoint x="707.5" y="2554.5" as="targetPoint" />
          </mxGeometry>
        </mxCell>
        <mxCell id="LVIn592RbWe3t4gDvWVq-43" value="" style="rounded=0;orthogonalLoop=1;jettySize=auto;html=1;exitX=1;exitY=0.5;exitDx=0;exitDy=0;entryX=0;entryY=0.5;entryDx=0;entryDy=0;" edge="1" parent="1" source="LVIn592RbWe3t4gDvWVq-41" target="LVIn592RbWe3t4gDvWVq-56">
          <mxGeometry relative="1" as="geometry">
            <mxPoint x="490" y="1919" as="sourcePoint" />
            <mxPoint x="595" y="1919" as="targetPoint" />
          </mxGeometry>
        </mxCell>
        <mxCell id="LVIn592RbWe3t4gDvWVq-44" value="第三方平台—ua" style="fillColor=none;strokeColor=#5A6C86;verticalAlign=top;fontStyle=0;fontColor=#5A6C86;whiteSpace=wrap;html=1;" vertex="1" parent="1">
          <mxGeometry x="305" y="1200" width="180" height="220" as="geometry" />
        </mxCell>
        <mxCell id="LVIn592RbWe3t4gDvWVq-45" value="applovin" style="rounded=0;whiteSpace=wrap;html=1;fillColor=#0050ef;fontColor=#ffffff;strokeColor=#001DBC;" vertex="1" parent="1">
          <mxGeometry x="335" y="1285" width="120" height="30" as="geometry" />
        </mxCell>
        <mxCell id="LVIn592RbWe3t4gDvWVq-46" value="apple_search" style="rounded=0;whiteSpace=wrap;html=1;fillColor=#0050ef;fontColor=#ffffff;strokeColor=#001DBC;" vertex="1" parent="1">
          <mxGeometry x="335" y="1245" width="120" height="30" as="geometry" />
        </mxCell>
        <mxCell id="LVIn592RbWe3t4gDvWVq-47" value="bigo" style="rounded=0;whiteSpace=wrap;html=1;fillColor=#0050ef;fontColor=#ffffff;strokeColor=#001DBC;" vertex="1" parent="1">
          <mxGeometry x="335" y="1325" width="120" height="30" as="geometry" />
        </mxCell>
        <mxCell id="LVIn592RbWe3t4gDvWVq-48" value="……" style="rounded=0;whiteSpace=wrap;html=1;fillColor=#0050ef;fontColor=#ffffff;strokeColor=#001DBC;" vertex="1" parent="1">
          <mxGeometry x="335" y="1365" width="120" height="30" as="geometry" />
        </mxCell>
        <mxCell id="LVIn592RbWe3t4gDvWVq-49" value="调度任务" style="fillColor=none;strokeColor=#5A6C86;verticalAlign=top;fontStyle=0;fontColor=#5A6C86;whiteSpace=wrap;html=1;" vertex="1" parent="1">
          <mxGeometry x="1310" y="1250" width="180" height="970" as="geometry" />
        </mxCell>
        <mxCell id="LVIn592RbWe3t4gDvWVq-50" value="每日收入数据拉取任务" style="rounded=0;whiteSpace=wrap;html=1;fillColor=#60a917;fontColor=#ffffff;strokeColor=#2D7600;" vertex="1" parent="1">
          <mxGeometry x="1340" y="1438" width="120" height="30" as="geometry" />
        </mxCell>
        <mxCell id="LVIn592RbWe3t4gDvWVq-51" value="每日ua拉取任务（15）" style="rounded=0;whiteSpace=wrap;html=1;fillColor=#60a917;fontColor=#ffffff;strokeColor=#2D7600;" vertex="1" parent="1">
          <mxGeometry x="1340" y="1295" width="120" height="30" as="geometry" />
        </mxCell>
        <mxCell id="LVIn592RbWe3t4gDvWVq-52" value="每日崩溃冷启动数据拉取任务" style="rounded=0;whiteSpace=wrap;html=1;fillColor=#60a917;fontColor=#ffffff;strokeColor=#2D7600;" vertex="1" parent="1">
          <mxGeometry x="1340" y="1752.75" width="120" height="30" as="geometry" />
        </mxCell>
        <mxCell id="LVIn592RbWe3t4gDvWVq-53" value="每日汇率数据拉取任务" style="rounded=0;whiteSpace=wrap;html=1;fillColor=#60a917;fontColor=#ffffff;strokeColor=#2D7600;" vertex="1" parent="1">
          <mxGeometry x="1340" y="1570" width="120" height="30" as="geometry" />
        </mxCell>
        <mxCell id="LVIn592RbWe3t4gDvWVq-54" value="每日adjust回调日志上传任务" style="rounded=0;whiteSpace=wrap;html=1;fillColor=#60a917;fontColor=#ffffff;strokeColor=#2D7600;" vertex="1" parent="1">
          <mxGeometry x="1340" y="1918" width="120" height="30" as="geometry" />
        </mxCell>
        <mxCell id="LVIn592RbWe3t4gDvWVq-55" value="" style="rounded=0;orthogonalLoop=1;jettySize=auto;html=1;exitX=1;exitY=0.5;exitDx=0;exitDy=0;" edge="1" parent="1" source="LVIn592RbWe3t4gDvWVq-44" target="LVIn592RbWe3t4gDvWVq-51">
          <mxGeometry relative="1" as="geometry">
            <mxPoint x="1334" y="1206" as="sourcePoint" />
            <mxPoint x="1439" y="1180" as="targetPoint" />
          </mxGeometry>
        </mxCell>
        <mxCell id="LVIn592RbWe3t4gDvWVq-56" value="Kafka-AWS" style="fillColor=none;strokeColor=#5A6C86;verticalAlign=top;fontStyle=0;fontColor=#5A6C86;whiteSpace=wrap;html=1;" vertex="1" parent="1">
          <mxGeometry x="1850" y="2462.5" width="150" height="168" as="geometry" />
        </mxCell>
        <mxCell id="LVIn592RbWe3t4gDvWVq-57" style="edgeStyle=orthogonalEdgeStyle;rounded=0;orthogonalLoop=1;jettySize=auto;html=1;exitX=0.5;exitY=1;exitDx=0;exitDy=0;" edge="1" parent="1">
          <mxGeometry relative="1" as="geometry">
            <mxPoint x="1369" y="1855" as="sourcePoint" />
            <mxPoint x="1369" y="1855" as="targetPoint" />
          </mxGeometry>
        </mxCell>
        <mxCell id="LVIn592RbWe3t4gDvWVq-58" style="edgeStyle=orthogonalEdgeStyle;rounded=0;orthogonalLoop=1;jettySize=auto;html=1;exitX=0.5;exitY=1;exitDx=0;exitDy=0;" edge="1" parent="1">
          <mxGeometry relative="1" as="geometry">
            <mxPoint x="1369" y="1855" as="sourcePoint" />
            <mxPoint x="1369" y="1855" as="targetPoint" />
          </mxGeometry>
        </mxCell>
        <mxCell id="LVIn592RbWe3t4gDvWVq-59" value="Topic-App-2" style="rounded=0;whiteSpace=wrap;html=1;movable=1;resizable=1;rotatable=1;deletable=1;editable=1;locked=0;connectable=1;" vertex="1" parent="1">
          <mxGeometry x="1875" y="2547.5" width="100" height="30" as="geometry" />
        </mxCell>
        <mxCell id="LVIn592RbWe3t4gDvWVq-60" value="……" style="rounded=0;whiteSpace=wrap;html=1;movable=1;resizable=1;rotatable=1;deletable=1;editable=1;locked=0;connectable=1;" vertex="1" parent="1">
          <mxGeometry x="1875" y="2587.5" width="100" height="30" as="geometry" />
        </mxCell>
        <mxCell id="LVIn592RbWe3t4gDvWVq-61" value="Topic-App-1" style="rounded=0;whiteSpace=wrap;html=1;movable=1;resizable=1;rotatable=1;deletable=1;editable=1;locked=0;connectable=1;" vertex="1" parent="1">
          <mxGeometry x="1875" y="2505" width="100" height="30" as="geometry" />
        </mxCell>
        <mxCell id="LVIn592RbWe3t4gDvWVq-62" value="" style="edgeStyle=orthogonalEdgeStyle;rounded=0;orthogonalLoop=1;jettySize=auto;html=1;exitX=1;exitY=0.5;exitDx=0;exitDy=0;entryX=0;entryY=0.5;entryDx=0;entryDy=0;" edge="1" parent="1" source="LVIn592RbWe3t4gDvWVq-49" target="LVIn592RbWe3t4gDvWVq-7">
          <mxGeometry relative="1" as="geometry">
            <mxPoint x="1710" y="1300" as="sourcePoint" />
            <mxPoint x="1968" y="1300" as="targetPoint" />
          </mxGeometry>
        </mxCell>
        <mxCell id="LVIn592RbWe3t4gDvWVq-63" value="中台数据库&lt;div&gt;（每个项目一个数据库）&lt;/div&gt;" style="rounded=0;whiteSpace=wrap;html=1;movable=1;resizable=1;rotatable=1;deletable=1;editable=1;locked=0;connectable=1;" vertex="1" parent="1">
          <mxGeometry x="927" y="2159" width="138" height="30" as="geometry" />
        </mxCell>
        <mxCell id="LVIn592RbWe3t4gDvWVq-64" value="中台adjus回调服务" style="rounded=0;whiteSpace=wrap;html=1;fillColor=#60a917;strokeColor=#2D7600;fontColor=#ffffff;" vertex="1" parent="1">
          <mxGeometry x="680" y="1906.5" width="120" height="60" as="geometry" />
        </mxCell>
        <mxCell id="LVIn592RbWe3t4gDvWVq-65" value="push任务" style="rounded=0;whiteSpace=wrap;html=1;fillColor=#60a917;strokeColor=#2D7600;fontColor=#ffffff;" vertex="1" parent="1">
          <mxGeometry x="680" y="1828" width="120" height="60" as="geometry" />
        </mxCell>
        <mxCell id="LVIn592RbWe3t4gDvWVq-66" value="" style="rounded=0;orthogonalLoop=1;jettySize=auto;html=1;exitX=1;exitY=0.5;exitDx=0;exitDy=0;entryX=0;entryY=0.5;entryDx=0;entryDy=0;" edge="1" parent="1" source="LVIn592RbWe3t4gDvWVq-63" target="LVIn592RbWe3t4gDvWVq-153">
          <mxGeometry relative="1" as="geometry">
            <mxPoint x="1120" y="1621.91" as="sourcePoint" />
            <mxPoint x="1495" y="1880" as="targetPoint" />
          </mxGeometry>
        </mxCell>
        <mxCell id="LVIn592RbWe3t4gDvWVq-67" value="" style="rounded=0;orthogonalLoop=1;jettySize=auto;html=1;entryX=0;entryY=0.5;entryDx=0;entryDy=0;exitX=1;exitY=0.5;exitDx=0;exitDy=0;" edge="1" parent="1" source="LVIn592RbWe3t4gDvWVq-107" target="LVIn592RbWe3t4gDvWVq-54">
          <mxGeometry x="0.0018" relative="1" as="geometry">
            <mxPoint x="1657.5" y="1750" as="sourcePoint" />
            <mxPoint x="1730.5" y="1680" as="targetPoint" />
            <mxPoint as="offset" />
          </mxGeometry>
        </mxCell>
        <mxCell id="LVIn592RbWe3t4gDvWVq-68" value="" style="rounded=0;orthogonalLoop=1;jettySize=auto;html=1;entryX=0;entryY=0.5;entryDx=0;entryDy=0;exitX=1;exitY=0.5;exitDx=0;exitDy=0;" edge="1" parent="1" source="LVIn592RbWe3t4gDvWVq-109" target="LVIn592RbWe3t4gDvWVq-69">
          <mxGeometry relative="1" as="geometry">
            <mxPoint x="1667.5" y="1760" as="sourcePoint" />
            <mxPoint x="1740.5" y="1690" as="targetPoint" />
          </mxGeometry>
        </mxCell>
        <mxCell id="LVIn592RbWe3t4gDvWVq-69" value="每日push日志上传任务" style="rounded=0;whiteSpace=wrap;html=1;fillColor=#60a917;fontColor=#ffffff;strokeColor=#2D7600;" vertex="1" parent="1">
          <mxGeometry x="1340" y="1843" width="120" height="30" as="geometry" />
        </mxCell>
        <mxCell id="LVIn592RbWe3t4gDvWVq-70" value="google play&lt;div&gt;订单数据接收&lt;/div&gt;" style="rounded=0;whiteSpace=wrap;html=1;fillColor=#60a917;strokeColor=#2D7600;fontColor=#ffffff;" vertex="1" parent="1">
          <mxGeometry x="678.5" y="2064" width="120" height="60" as="geometry" />
        </mxCell>
        <mxCell id="LVIn592RbWe3t4gDvWVq-71" value="" style="rounded=0;orthogonalLoop=1;jettySize=auto;html=1;entryX=0;entryY=0.5;entryDx=0;entryDy=0;exitX=1;exitY=0.5;exitDx=0;exitDy=0;" edge="1" parent="1" source="LVIn592RbWe3t4gDvWVq-70" target="LVIn592RbWe3t4gDvWVq-63">
          <mxGeometry relative="1" as="geometry">
            <mxPoint x="1110" y="2028.1599999999999" as="sourcePoint" />
            <mxPoint x="1330" y="2063.16" as="targetPoint" />
          </mxGeometry>
        </mxCell>
        <mxCell id="LVIn592RbWe3t4gDvWVq-72" value="Kafka-GCP" style="fillColor=none;strokeColor=#5A6C86;verticalAlign=top;fontStyle=0;fontColor=#5A6C86;whiteSpace=wrap;html=1;direction=west;" vertex="1" parent="1">
          <mxGeometry x="1170" y="3036" width="150" height="220" as="geometry" />
        </mxCell>
        <mxCell id="LVIn592RbWe3t4gDvWVq-73" value="adjust" style="rounded=0;whiteSpace=wrap;html=1;movable=1;resizable=1;rotatable=1;deletable=1;editable=1;locked=0;connectable=1;direction=west;" vertex="1" parent="1">
          <mxGeometry x="1195" y="3080.5" width="100" height="30" as="geometry" />
        </mxCell>
        <mxCell id="LVIn592RbWe3t4gDvWVq-74" value="firebase" style="rounded=0;whiteSpace=wrap;html=1;movable=1;resizable=1;rotatable=1;deletable=1;editable=1;locked=0;connectable=1;direction=west;" vertex="1" parent="1">
          <mxGeometry x="1195" y="3121" width="100" height="30" as="geometry" />
        </mxCell>
        <mxCell id="LVIn592RbWe3t4gDvWVq-75" value="castbox" style="rounded=0;whiteSpace=wrap;html=1;movable=1;resizable=1;rotatable=1;deletable=1;editable=1;locked=0;connectable=1;direction=west;" vertex="1" parent="1">
          <mxGeometry x="1195" y="3161" width="100" height="30" as="geometry" />
        </mxCell>
        <mxCell id="LVIn592RbWe3t4gDvWVq-76" value="" style="rounded=0;orthogonalLoop=1;jettySize=auto;html=1;exitX=1;exitY=0.5;exitDx=0;exitDy=0;entryX=0;entryY=0.5;entryDx=0;entryDy=0;" edge="1" parent="1" source="LVIn592RbWe3t4gDvWVq-73" target="LVIn592RbWe3t4gDvWVq-78">
          <mxGeometry relative="1" as="geometry">
            <mxPoint x="917" y="3085" as="sourcePoint" />
          </mxGeometry>
        </mxCell>
        <mxCell id="LVIn592RbWe3t4gDvWVq-77" value="" style="rounded=0;orthogonalLoop=1;jettySize=auto;html=1;entryX=0;entryY=0.5;entryDx=0;entryDy=0;exitX=1;exitY=0.5;exitDx=0;exitDy=0;" edge="1" parent="1" source="LVIn592RbWe3t4gDvWVq-78" target="LVIn592RbWe3t4gDvWVq-79">
          <mxGeometry relative="1" as="geometry" />
        </mxCell>
        <mxCell id="LVIn592RbWe3t4gDvWVq-78" value="&lt;div&gt;服务端打点平台&lt;/div&gt;——执行worker" style="rounded=0;whiteSpace=wrap;html=1;fillColor=#60a917;strokeColor=#2D7600;fontColor=#ffffff;direction=west;" vertex="1" parent="1">
          <mxGeometry x="949" y="3004.5" width="120" height="46" as="geometry" />
        </mxCell>
        <mxCell id="LVIn592RbWe3t4gDvWVq-79" value="adjust平台" style="rounded=0;whiteSpace=wrap;html=1;fillColor=#0050ef;fontColor=#ffffff;strokeColor=#001DBC;direction=west;" vertex="1" parent="1">
          <mxGeometry x="305" y="3231.5" width="120" height="60" as="geometry" />
        </mxCell>
        <mxCell id="LVIn592RbWe3t4gDvWVq-80" value="" style="rounded=0;orthogonalLoop=1;jettySize=auto;html=1;entryX=0;entryY=0.5;entryDx=0;entryDy=0;exitX=1;exitY=0.5;exitDx=0;exitDy=0;" edge="1" parent="1" source="LVIn592RbWe3t4gDvWVq-74" target="LVIn592RbWe3t4gDvWVq-81">
          <mxGeometry relative="1" as="geometry">
            <mxPoint x="917" y="3125" as="sourcePoint" />
          </mxGeometry>
        </mxCell>
        <mxCell id="LVIn592RbWe3t4gDvWVq-81" value="&lt;div&gt;服务端打点平台&lt;/div&gt;——执行worker" style="rounded=0;whiteSpace=wrap;html=1;fillColor=#60a917;strokeColor=#2D7600;fontColor=#ffffff;direction=west;" vertex="1" parent="1">
          <mxGeometry x="949" y="3087" width="120" height="44" as="geometry" />
        </mxCell>
        <mxCell id="LVIn592RbWe3t4gDvWVq-82" value="&lt;div&gt;服务端打点平台&lt;/div&gt;——执行worker" style="rounded=0;whiteSpace=wrap;html=1;fillColor=#60a917;strokeColor=#2D7600;fontColor=#ffffff;direction=west;" vertex="1" parent="1">
          <mxGeometry x="949" y="3165" width="120" height="44.5" as="geometry" />
        </mxCell>
        <mxCell id="LVIn592RbWe3t4gDvWVq-83" value="" style="rounded=0;orthogonalLoop=1;jettySize=auto;html=1;entryX=0;entryY=0.5;entryDx=0;entryDy=0;exitX=1;exitY=0.5;exitDx=0;exitDy=0;" edge="1" parent="1" source="LVIn592RbWe3t4gDvWVq-75" target="LVIn592RbWe3t4gDvWVq-82">
          <mxGeometry relative="1" as="geometry">
            <mxPoint x="917" y="3165" as="sourcePoint" />
            <mxPoint x="996" y="3062" as="targetPoint" />
          </mxGeometry>
        </mxCell>
        <mxCell id="LVIn592RbWe3t4gDvWVq-84" value="firebase平台" style="rounded=0;whiteSpace=wrap;html=1;fillColor=#0050ef;fontColor=#ffffff;strokeColor=#001DBC;direction=west;" vertex="1" parent="1">
          <mxGeometry x="305" y="3333.5" width="120" height="60" as="geometry" />
        </mxCell>
        <mxCell id="LVIn592RbWe3t4gDvWVq-85" value="guru打点服务&lt;div&gt;——Nginx&lt;/div&gt;" style="rounded=0;whiteSpace=wrap;html=1;fillColor=#60a917;fontColor=#ffffff;strokeColor=#2D7600;direction=west;" vertex="1" parent="1">
          <mxGeometry x="305" y="3433.5" width="120" height="60" as="geometry" />
        </mxCell>
        <mxCell id="LVIn592RbWe3t4gDvWVq-86" value="" style="rounded=0;orthogonalLoop=1;jettySize=auto;html=1;entryX=0;entryY=0.5;entryDx=0;entryDy=0;exitX=1;exitY=0.5;exitDx=0;exitDy=0;" edge="1" parent="1" source="LVIn592RbWe3t4gDvWVq-82" target="LVIn592RbWe3t4gDvWVq-85">
          <mxGeometry relative="1" as="geometry">
            <mxPoint x="619" y="3012.4700000000003" as="sourcePoint" />
            <mxPoint x="743" y="3013.4700000000003" as="targetPoint" />
          </mxGeometry>
        </mxCell>
        <mxCell id="LVIn592RbWe3t4gDvWVq-87" value="" style="rounded=0;orthogonalLoop=1;jettySize=auto;html=1;entryX=0;entryY=0.5;entryDx=0;entryDy=0;exitX=1;exitY=0.5;exitDx=0;exitDy=0;" edge="1" parent="1" source="LVIn592RbWe3t4gDvWVq-81" target="LVIn592RbWe3t4gDvWVq-84">
          <mxGeometry relative="1" as="geometry">
            <mxPoint x="709" y="2811" as="sourcePoint" />
            <mxPoint x="833" y="2812" as="targetPoint" />
          </mxGeometry>
        </mxCell>
        <mxCell id="LVIn592RbWe3t4gDvWVq-88" value="" style="rounded=0;orthogonalLoop=1;jettySize=auto;html=1;exitX=1;exitY=0.25;exitDx=0;exitDy=0;edgeStyle=orthogonalEdgeStyle;entryX=0;entryY=0.5;entryDx=0;entryDy=0;" edge="1" parent="1" source="LVIn592RbWe3t4gDvWVq-110" target="LVIn592RbWe3t4gDvWVq-111">
          <mxGeometry relative="1" as="geometry">
            <mxPoint x="798.5" y="2317.46" as="sourcePoint" />
            <mxPoint x="1745" y="2450" as="targetPoint" />
            <Array as="points">
              <mxPoint x="1795" y="2318" />
              <mxPoint x="1795" y="3342" />
            </Array>
          </mxGeometry>
        </mxCell>
        <mxCell id="LVIn592RbWe3t4gDvWVq-89" value="订单打点（新逻辑）" style="edgeLabel;html=1;align=center;verticalAlign=middle;resizable=0;points=[];" vertex="1" connectable="0" parent="LVIn592RbWe3t4gDvWVq-88">
          <mxGeometry x="-0.7906" y="2" relative="1" as="geometry">
            <mxPoint as="offset" />
          </mxGeometry>
        </mxCell>
        <mxCell id="LVIn592RbWe3t4gDvWVq-90" value="" style="rounded=0;orthogonalLoop=1;jettySize=auto;html=1;entryX=0.5;entryY=1;entryDx=0;entryDy=0;exitX=0.5;exitY=1;exitDx=0;exitDy=0;dashed=1;dashPattern=8 8;edgeStyle=orthogonalEdgeStyle;" edge="1" parent="1" source="LVIn592RbWe3t4gDvWVq-110" target="LVIn592RbWe3t4gDvWVq-9">
          <mxGeometry relative="1" as="geometry">
            <mxPoint x="1090" y="2210" as="sourcePoint" />
            <mxPoint x="2230" y="1770" as="targetPoint" />
            <Array as="points">
              <mxPoint x="738" y="2410" />
              <mxPoint x="835" y="2410" />
              <mxPoint x="835" y="2820" />
              <mxPoint x="365" y="2820" />
            </Array>
          </mxGeometry>
        </mxCell>
        <mxCell id="LVIn592RbWe3t4gDvWVq-91" value="订单打点（旧逻辑）" style="edgeLabel;html=1;align=center;verticalAlign=middle;resizable=0;points=[];" vertex="1" connectable="0" parent="LVIn592RbWe3t4gDvWVq-90">
          <mxGeometry x="-0.8822" y="4" relative="1" as="geometry">
            <mxPoint as="offset" />
          </mxGeometry>
        </mxCell>
        <mxCell id="LVIn592RbWe3t4gDvWVq-92" value="Kafka-GCP" style="fillColor=none;strokeColor=#5A6C86;verticalAlign=top;fontStyle=0;fontColor=#5A6C86;whiteSpace=wrap;html=1;" vertex="1" parent="1">
          <mxGeometry x="1845" y="3044" width="150" height="150" as="geometry" />
        </mxCell>
        <mxCell id="LVIn592RbWe3t4gDvWVq-93" value="&lt;p style=&quot;margin: 0px; font-variant-numeric: normal; font-variant-east-asian: normal; font-variant-alternates: normal; font-size-adjust: none; font-kerning: auto; font-optical-sizing: auto; font-feature-settings: normal; font-variation-settings: normal; font-variant-position: normal; font-variant-emoji: normal; font-stretch: normal; line-height: normal; text-align: start;&quot; class=&quot;p1&quot;&gt;BI通用事件消息&lt;/p&gt;" style="rounded=0;whiteSpace=wrap;html=1;movable=1;resizable=1;rotatable=1;deletable=1;editable=1;locked=0;connectable=1;direction=west;" vertex="1" parent="1">
          <mxGeometry x="1870" y="3085" width="100" height="30" as="geometry" />
        </mxCell>
        <mxCell id="LVIn592RbWe3t4gDvWVq-94" value="&lt;p style=&quot;margin: 0px; font-variant-numeric: normal; font-variant-east-asian: normal; font-variant-alternates: normal; font-size-adjust: none; font-kerning: auto; font-optical-sizing: auto; font-feature-settings: normal; font-variation-settings: normal; font-variant-position: normal; font-variant-emoji: normal; font-stretch: normal; line-height: normal; text-align: start;&quot; class=&quot;p1&quot;&gt;BI通用收入聚合事件消息&lt;/p&gt;" style="rounded=0;whiteSpace=wrap;html=1;movable=1;resizable=1;rotatable=1;deletable=1;editable=1;locked=0;connectable=1;direction=west;" vertex="1" parent="1">
          <mxGeometry x="1870" y="3135" width="100" height="30" as="geometry" />
        </mxCell>
        <mxCell id="LVIn592RbWe3t4gDvWVq-95" value="" style="rounded=0;orthogonalLoop=1;jettySize=auto;html=1;exitX=1;exitY=0.5;exitDx=0;exitDy=0;entryX=0;entryY=0.5;entryDx=0;entryDy=0;" edge="1" parent="1" source="LVIn592RbWe3t4gDvWVq-33" target="LVIn592RbWe3t4gDvWVq-72">
          <mxGeometry relative="1" as="geometry">
            <mxPoint x="925" y="2563" as="sourcePoint" />
            <mxPoint x="648" y="3141" as="targetPoint" />
          </mxGeometry>
        </mxCell>
        <mxCell id="LVIn592RbWe3t4gDvWVq-96" value="&lt;div&gt;服务端打点平台&lt;/div&gt;——分发worker" style="rounded=0;whiteSpace=wrap;html=1;fillColor=#60a917;strokeColor=#2D7600;fontColor=#ffffff;direction=west;" vertex="1" parent="1">
          <mxGeometry x="1410" y="3507" width="120" height="60" as="geometry" />
        </mxCell>
        <mxCell id="LVIn592RbWe3t4gDvWVq-97" value="BQ" style="rounded=0;whiteSpace=wrap;html=1;" vertex="1" parent="1">
          <mxGeometry x="3362" y="2037.5" width="120" height="60" as="geometry" />
        </mxCell>
        <mxCell id="LVIn592RbWe3t4gDvWVq-98" value="" style="edgeStyle=orthogonalEdgeStyle;rounded=0;orthogonalLoop=1;jettySize=auto;html=1;exitX=1;exitY=0.5;exitDx=0;exitDy=0;entryX=0;entryY=0.5;entryDx=0;entryDy=0;" edge="1" parent="1" source="LVIn592RbWe3t4gDvWVq-11" target="LVIn592RbWe3t4gDvWVq-6">
          <mxGeometry relative="1" as="geometry">
            <mxPoint x="520" y="2290.16" as="sourcePoint" />
            <mxPoint x="2100" y="2665.16" as="targetPoint" />
          </mxGeometry>
        </mxCell>
        <mxCell id="LVIn592RbWe3t4gDvWVq-99" value="" style="edgeStyle=orthogonalEdgeStyle;rounded=0;orthogonalLoop=1;jettySize=auto;html=1;entryX=0;entryY=0.5;entryDx=0;entryDy=0;" edge="1" parent="1" source="LVIn592RbWe3t4gDvWVq-101" target="LVIn592RbWe3t4gDvWVq-64">
          <mxGeometry relative="1" as="geometry">
            <mxPoint x="530" y="1832.1599999999999" as="targetPoint" />
          </mxGeometry>
        </mxCell>
        <mxCell id="LVIn592RbWe3t4gDvWVq-100" value="回调" style="edgeLabel;html=1;align=center;verticalAlign=middle;resizable=0;points=[];" vertex="1" connectable="0" parent="LVIn592RbWe3t4gDvWVq-99">
          <mxGeometry x="-0.2462" y="-4" relative="1" as="geometry">
            <mxPoint x="78" as="offset" />
          </mxGeometry>
        </mxCell>
        <mxCell id="LVIn592RbWe3t4gDvWVq-101" value="Adjust" style="rounded=0;whiteSpace=wrap;html=1;fillColor=#0050ef;fontColor=#ffffff;strokeColor=#001DBC;" vertex="1" parent="1">
          <mxGeometry x="345" y="1921" width="120" height="30" as="geometry" />
        </mxCell>
        <mxCell id="LVIn592RbWe3t4gDvWVq-102" value="Google Play" style="rounded=0;whiteSpace=wrap;html=1;fillColor=#0050ef;fontColor=#ffffff;strokeColor=#001DBC;" vertex="1" parent="1">
          <mxGeometry x="345" y="2064.16" width="120" height="60" as="geometry" />
        </mxCell>
        <mxCell id="LVIn592RbWe3t4gDvWVq-103" value="" style="edgeStyle=orthogonalEdgeStyle;rounded=0;orthogonalLoop=1;jettySize=auto;html=1;entryX=0;entryY=0.5;entryDx=0;entryDy=0;exitX=1;exitY=0.5;exitDx=0;exitDy=0;" edge="1" parent="1" source="LVIn592RbWe3t4gDvWVq-102" target="LVIn592RbWe3t4gDvWVq-70">
          <mxGeometry relative="1" as="geometry">
            <mxPoint x="490" y="2095.16" as="sourcePoint" />
            <mxPoint x="722" y="2098.16" as="targetPoint" />
          </mxGeometry>
        </mxCell>
        <mxCell id="LVIn592RbWe3t4gDvWVq-104" value="推送" style="edgeLabel;html=1;align=center;verticalAlign=middle;resizable=0;points=[];" vertex="1" connectable="0" parent="LVIn592RbWe3t4gDvWVq-103">
          <mxGeometry x="-0.2462" y="-4" relative="1" as="geometry">
            <mxPoint x="78" as="offset" />
          </mxGeometry>
        </mxCell>
        <mxCell id="LVIn592RbWe3t4gDvWVq-105" value="appsflyer平台" style="rounded=0;whiteSpace=wrap;html=1;fillColor=#0050ef;fontColor=#ffffff;strokeColor=#001DBC;direction=west;" vertex="1" parent="1">
          <mxGeometry x="305" y="3534.5" width="120" height="60" as="geometry" />
        </mxCell>
        <mxCell id="LVIn592RbWe3t4gDvWVq-106" value="" style="rounded=0;orthogonalLoop=1;jettySize=auto;html=1;entryX=0;entryY=0.5;entryDx=0;entryDy=0;exitX=1;exitY=0.5;exitDx=0;exitDy=0;" edge="1" parent="1" source="LVIn592RbWe3t4gDvWVq-64" target="LVIn592RbWe3t4gDvWVq-107">
          <mxGeometry relative="1" as="geometry">
            <mxPoint x="842" y="1829.1599999999999" as="sourcePoint" />
            <mxPoint x="1493" y="1661.1599999999999" as="targetPoint" />
          </mxGeometry>
        </mxCell>
        <mxCell id="LVIn592RbWe3t4gDvWVq-107" value="日志" style="rounded=0;whiteSpace=wrap;html=1;movable=1;resizable=1;rotatable=1;deletable=1;editable=1;locked=0;connectable=1;" vertex="1" parent="1">
          <mxGeometry x="927" y="1921.1599999999999" width="100" height="30" as="geometry" />
        </mxCell>
        <mxCell id="LVIn592RbWe3t4gDvWVq-108" value="" style="rounded=0;orthogonalLoop=1;jettySize=auto;html=1;entryX=0;entryY=0.5;entryDx=0;entryDy=0;exitX=1;exitY=0.5;exitDx=0;exitDy=0;" edge="1" parent="1" source="LVIn592RbWe3t4gDvWVq-65" target="LVIn592RbWe3t4gDvWVq-109">
          <mxGeometry relative="1" as="geometry">
            <mxPoint x="842" y="1753" as="sourcePoint" />
            <mxPoint x="1493" y="1486" as="targetPoint" />
          </mxGeometry>
        </mxCell>
        <mxCell id="LVIn592RbWe3t4gDvWVq-109" value="日志" style="rounded=0;whiteSpace=wrap;html=1;movable=1;resizable=1;rotatable=1;deletable=1;editable=1;locked=0;connectable=1;" vertex="1" parent="1">
          <mxGeometry x="927" y="1843" width="100" height="30" as="geometry" />
        </mxCell>
        <mxCell id="LVIn592RbWe3t4gDvWVq-110" value="中台订单服务" style="rounded=0;whiteSpace=wrap;html=1;fillColor=#60a917;strokeColor=#2D7600;fontColor=#ffffff;" vertex="1" parent="1">
          <mxGeometry x="678.5" y="2302.66" width="120" height="60" as="geometry" />
        </mxCell>
        <mxCell id="LVIn592RbWe3t4gDvWVq-111" value="Kafka-GCP" style="fillColor=none;strokeColor=#5A6C86;verticalAlign=top;fontStyle=0;fontColor=#5A6C86;whiteSpace=wrap;html=1;" vertex="1" parent="1">
          <mxGeometry x="1837.5" y="3232" width="175" height="220" as="geometry" />
        </mxCell>
        <mxCell id="LVIn592RbWe3t4gDvWVq-112" value="&lt;p style=&quot;margin: 0px; font-variant-numeric: normal; font-variant-east-asian: normal; font-variant-alternates: normal; font-size-adjust: none; font-kerning: auto; font-optical-sizing: auto; font-feature-settings: normal; font-variation-settings: normal; font-variant-position: normal; font-variant-emoji: normal; font-stretch: normal; line-height: normal; text-align: start;&quot; class=&quot;p1&quot;&gt;订单类消息--adjust&lt;/p&gt;" style="rounded=0;whiteSpace=wrap;html=1;movable=1;resizable=1;rotatable=1;deletable=1;editable=1;locked=0;connectable=1;direction=west;" vertex="1" parent="1">
          <mxGeometry x="1862.5" y="3271" width="130" height="30" as="geometry" />
        </mxCell>
        <mxCell id="LVIn592RbWe3t4gDvWVq-113" value="&lt;p style=&quot;margin: 0px; font-variant-numeric: normal; font-variant-east-asian: normal; font-variant-alternates: normal; font-size-adjust: none; font-kerning: auto; font-optical-sizing: auto; font-feature-settings: normal; font-variation-settings: normal; font-variant-position: normal; font-variant-emoji: normal; font-stretch: normal; line-height: normal; text-align: start;&quot; class=&quot;p1&quot;&gt;订单类消息--firebase&lt;/p&gt;" style="rounded=0;whiteSpace=wrap;html=1;movable=1;resizable=1;rotatable=1;deletable=1;editable=1;locked=0;connectable=1;direction=west;" vertex="1" parent="1">
          <mxGeometry x="1862.5" y="3320" width="130" height="30" as="geometry" />
        </mxCell>
        <mxCell id="LVIn592RbWe3t4gDvWVq-114" value="" style="rounded=0;orthogonalLoop=1;jettySize=auto;html=1;exitX=1;exitY=0.5;exitDx=0;exitDy=0;entryX=0;entryY=0.5;entryDx=0;entryDy=0;edgeStyle=orthogonalEdgeStyle;" edge="1" parent="1" source="LVIn592RbWe3t4gDvWVq-115" target="LVIn592RbWe3t4gDvWVq-134">
          <mxGeometry relative="1" as="geometry" />
        </mxCell>
        <mxCell id="LVIn592RbWe3t4gDvWVq-115" value="&lt;p style=&quot;margin: 0px; font-variant-numeric: normal; font-variant-east-asian: normal; font-variant-alternates: normal; font-size-adjust: none; font-kerning: auto; font-optical-sizing: auto; font-feature-settings: normal; font-variation-settings: normal; font-variant-position: normal; font-variant-emoji: normal; font-stretch: normal; line-height: normal; text-align: start;&quot; class=&quot;p1&quot;&gt;订单类消息--castbox&lt;/p&gt;" style="rounded=0;whiteSpace=wrap;html=1;movable=1;resizable=1;rotatable=1;deletable=1;editable=1;locked=0;connectable=1;direction=west;" vertex="1" parent="1">
          <mxGeometry x="1862.5" y="3361.5" width="130" height="30" as="geometry" />
        </mxCell>
        <mxCell id="LVIn592RbWe3t4gDvWVq-116" value="" style="rounded=0;orthogonalLoop=1;jettySize=auto;html=1;entryX=0;entryY=0.5;entryDx=0;entryDy=0;exitX=1;exitY=0.5;exitDx=0;exitDy=0;edgeStyle=orthogonalEdgeStyle;" edge="1" parent="1" source="LVIn592RbWe3t4gDvWVq-117" target="LVIn592RbWe3t4gDvWVq-136">
          <mxGeometry relative="1" as="geometry" />
        </mxCell>
        <mxCell id="LVIn592RbWe3t4gDvWVq-117" value="&lt;p style=&quot;margin: 0px; font-variant-numeric: normal; font-variant-east-asian: normal; font-variant-alternates: normal; font-size-adjust: none; font-kerning: auto; font-optical-sizing: auto; font-feature-settings: normal; font-variation-settings: normal; font-variant-position: normal; font-variant-emoji: normal; font-stretch: normal; line-height: normal; text-align: start;&quot; class=&quot;p1&quot;&gt;订单类消息--appsflyer&lt;/p&gt;" style="rounded=0;whiteSpace=wrap;html=1;movable=1;resizable=1;rotatable=1;deletable=1;editable=1;locked=0;connectable=1;direction=west;" vertex="1" parent="1">
          <mxGeometry x="1862.5" y="3405" width="130" height="30" as="geometry" />
        </mxCell>
        <mxCell id="LVIn592RbWe3t4gDvWVq-118" value="&lt;div&gt;服务端打点平台&lt;/div&gt;——执行worker" style="rounded=0;whiteSpace=wrap;html=1;fillColor=#60a917;strokeColor=#2D7600;fontColor=#ffffff;direction=west;" vertex="1" parent="1">
          <mxGeometry x="949" y="3246.5" width="120" height="44.5" as="geometry" />
        </mxCell>
        <mxCell id="LVIn592RbWe3t4gDvWVq-119" value="" style="rounded=0;orthogonalLoop=1;jettySize=auto;html=1;entryX=0;entryY=0.5;entryDx=0;entryDy=0;exitX=1;exitY=0.5;exitDx=0;exitDy=0;" edge="1" parent="1" source="LVIn592RbWe3t4gDvWVq-118" target="LVIn592RbWe3t4gDvWVq-105">
          <mxGeometry relative="1" as="geometry">
            <mxPoint x="780" y="3138" as="sourcePoint" />
            <mxPoint x="904" y="3137" as="targetPoint" />
          </mxGeometry>
        </mxCell>
        <mxCell id="LVIn592RbWe3t4gDvWVq-120" value="appsfilyer" style="rounded=0;whiteSpace=wrap;html=1;movable=1;resizable=1;rotatable=1;deletable=1;editable=1;locked=0;connectable=1;direction=west;" vertex="1" parent="1">
          <mxGeometry x="1195" y="3205" width="100" height="30" as="geometry" />
        </mxCell>
        <mxCell id="LVIn592RbWe3t4gDvWVq-121" value="" style="rounded=0;orthogonalLoop=1;jettySize=auto;html=1;entryX=0;entryY=0.5;entryDx=0;entryDy=0;exitX=1;exitY=0.5;exitDx=0;exitDy=0;" edge="1" parent="1" source="LVIn592RbWe3t4gDvWVq-120" target="LVIn592RbWe3t4gDvWVq-118">
          <mxGeometry relative="1" as="geometry">
            <mxPoint x="820" y="3321" as="sourcePoint" />
            <mxPoint x="911" y="3381" as="targetPoint" />
          </mxGeometry>
        </mxCell>
        <mxCell id="LVIn592RbWe3t4gDvWVq-122" value="Kafka-GCP" style="fillColor=none;strokeColor=#5A6C86;verticalAlign=top;fontStyle=0;fontColor=#5A6C86;whiteSpace=wrap;html=1;direction=west;" vertex="1" parent="1">
          <mxGeometry x="1195" y="3529" width="150" height="220" as="geometry" />
        </mxCell>
        <mxCell id="LVIn592RbWe3t4gDvWVq-123" value="" style="rounded=0;orthogonalLoop=1;jettySize=auto;html=1;entryX=0;entryY=0.5;entryDx=0;entryDy=0;exitX=1;exitY=0.5;exitDx=0;exitDy=0;" edge="1" parent="1" source="LVIn592RbWe3t4gDvWVq-124" target="LVIn592RbWe3t4gDvWVq-138">
          <mxGeometry relative="1" as="geometry" />
        </mxCell>
        <mxCell id="LVIn592RbWe3t4gDvWVq-124" value="adjust" style="rounded=0;whiteSpace=wrap;html=1;movable=1;resizable=1;rotatable=1;deletable=1;editable=1;locked=0;connectable=1;direction=west;" vertex="1" parent="1">
          <mxGeometry x="1220" y="3573.5" width="100" height="30" as="geometry" />
        </mxCell>
        <mxCell id="LVIn592RbWe3t4gDvWVq-125" value="" style="rounded=0;orthogonalLoop=1;jettySize=auto;html=1;entryX=0;entryY=0.5;entryDx=0;entryDy=0;exitX=1;exitY=0.5;exitDx=0;exitDy=0;" edge="1" parent="1" source="LVIn592RbWe3t4gDvWVq-126" target="LVIn592RbWe3t4gDvWVq-139">
          <mxGeometry relative="1" as="geometry" />
        </mxCell>
        <mxCell id="LVIn592RbWe3t4gDvWVq-126" value="firebase" style="rounded=0;whiteSpace=wrap;html=1;movable=1;resizable=1;rotatable=1;deletable=1;editable=1;locked=0;connectable=1;direction=west;" vertex="1" parent="1">
          <mxGeometry x="1220" y="3614" width="100" height="30" as="geometry" />
        </mxCell>
        <mxCell id="LVIn592RbWe3t4gDvWVq-127" value="" style="rounded=0;orthogonalLoop=1;jettySize=auto;html=1;entryX=0;entryY=0.5;entryDx=0;entryDy=0;exitX=1;exitY=0.5;exitDx=0;exitDy=0;" edge="1" parent="1" source="LVIn592RbWe3t4gDvWVq-128" target="LVIn592RbWe3t4gDvWVq-140">
          <mxGeometry relative="1" as="geometry" />
        </mxCell>
        <mxCell id="LVIn592RbWe3t4gDvWVq-128" value="castbox" style="rounded=0;whiteSpace=wrap;html=1;movable=1;resizable=1;rotatable=1;deletable=1;editable=1;locked=0;connectable=1;direction=west;" vertex="1" parent="1">
          <mxGeometry x="1220" y="3654" width="100" height="30" as="geometry" />
        </mxCell>
        <mxCell id="LVIn592RbWe3t4gDvWVq-129" value="" style="rounded=0;orthogonalLoop=1;jettySize=auto;html=1;exitX=1;exitY=0.5;exitDx=0;exitDy=0;entryX=0;entryY=0.5;entryDx=0;entryDy=0;" edge="1" parent="1" source="LVIn592RbWe3t4gDvWVq-130" target="LVIn592RbWe3t4gDvWVq-141">
          <mxGeometry relative="1" as="geometry" />
        </mxCell>
        <mxCell id="LVIn592RbWe3t4gDvWVq-130" value="appsfilyer" style="rounded=0;whiteSpace=wrap;html=1;movable=1;resizable=1;rotatable=1;deletable=1;editable=1;locked=0;connectable=1;direction=west;" vertex="1" parent="1">
          <mxGeometry x="1220" y="3698" width="100" height="30" as="geometry" />
        </mxCell>
        <mxCell id="LVIn592RbWe3t4gDvWVq-131" value="" style="rounded=0;orthogonalLoop=1;jettySize=auto;html=1;exitX=1;exitY=0.5;exitDx=0;exitDy=0;entryX=0;entryY=0.5;entryDx=0;entryDy=0;" edge="1" parent="1" source="LVIn592RbWe3t4gDvWVq-132" target="LVIn592RbWe3t4gDvWVq-126">
          <mxGeometry relative="1" as="geometry" />
        </mxCell>
        <mxCell id="LVIn592RbWe3t4gDvWVq-132" value="&lt;div&gt;服务端打点平台&lt;/div&gt;——分发worker" style="rounded=0;whiteSpace=wrap;html=1;fillColor=#60a917;strokeColor=#2D7600;fontColor=#ffffff;direction=west;" vertex="1" parent="1">
          <mxGeometry x="1410" y="3584.5" width="120" height="60" as="geometry" />
        </mxCell>
        <mxCell id="LVIn592RbWe3t4gDvWVq-133" value="" style="rounded=0;orthogonalLoop=1;jettySize=auto;html=1;entryX=0;entryY=0.5;entryDx=0;entryDy=0;exitX=1;exitY=0.5;exitDx=0;exitDy=0;" edge="1" parent="1" source="LVIn592RbWe3t4gDvWVq-134" target="LVIn592RbWe3t4gDvWVq-128">
          <mxGeometry relative="1" as="geometry" />
        </mxCell>
        <mxCell id="LVIn592RbWe3t4gDvWVq-134" value="&lt;div&gt;服务端打点平台&lt;/div&gt;——分发worker" style="rounded=0;whiteSpace=wrap;html=1;fillColor=#60a917;strokeColor=#2D7600;fontColor=#ffffff;direction=west;" vertex="1" parent="1">
          <mxGeometry x="1410" y="3661.5" width="120" height="60" as="geometry" />
        </mxCell>
        <mxCell id="LVIn592RbWe3t4gDvWVq-135" value="" style="rounded=0;orthogonalLoop=1;jettySize=auto;html=1;entryX=0;entryY=0.5;entryDx=0;entryDy=0;exitX=1;exitY=0.5;exitDx=0;exitDy=0;" edge="1" parent="1" source="LVIn592RbWe3t4gDvWVq-136" target="LVIn592RbWe3t4gDvWVq-130">
          <mxGeometry relative="1" as="geometry" />
        </mxCell>
        <mxCell id="LVIn592RbWe3t4gDvWVq-136" value="&lt;div&gt;服务端打点平台&lt;/div&gt;——分发worker&lt;div&gt;1、去重逻辑&lt;/div&gt;&lt;div&gt;2、通知发送&lt;/div&gt;" style="rounded=0;whiteSpace=wrap;html=1;fillColor=#60a917;strokeColor=#2D7600;fontColor=#ffffff;direction=west;" vertex="1" parent="1">
          <mxGeometry x="1410" y="3739" width="120" height="60" as="geometry" />
        </mxCell>
        <mxCell id="LVIn592RbWe3t4gDvWVq-137" value="" style="rounded=0;orthogonalLoop=1;jettySize=auto;html=1;exitX=1;exitY=0.5;exitDx=0;exitDy=0;entryX=0;entryY=0.5;entryDx=0;entryDy=0;edgeStyle=orthogonalEdgeStyle;" edge="1" parent="1" source="LVIn592RbWe3t4gDvWVq-113" target="LVIn592RbWe3t4gDvWVq-132">
          <mxGeometry relative="1" as="geometry">
            <mxPoint x="3405" y="2232" as="targetPoint" />
            <mxPoint x="3315" y="2296" as="sourcePoint" />
          </mxGeometry>
        </mxCell>
        <mxCell id="LVIn592RbWe3t4gDvWVq-138" value="&lt;div&gt;服务端打点平台&lt;/div&gt;——执行worker" style="rounded=0;whiteSpace=wrap;html=1;fillColor=#60a917;strokeColor=#2D7600;fontColor=#ffffff;direction=west;" vertex="1" parent="1">
          <mxGeometry x="980" y="3514" width="120" height="46" as="geometry" />
        </mxCell>
        <mxCell id="LVIn592RbWe3t4gDvWVq-139" value="&lt;div&gt;服务端打点平台&lt;/div&gt;——执行worker" style="rounded=0;whiteSpace=wrap;html=1;fillColor=#60a917;strokeColor=#2D7600;fontColor=#ffffff;direction=west;" vertex="1" parent="1">
          <mxGeometry x="980" y="3592.5" width="120" height="44" as="geometry" />
        </mxCell>
        <mxCell id="LVIn592RbWe3t4gDvWVq-140" value="&lt;div&gt;服务端打点平台&lt;/div&gt;——执行worker" style="rounded=0;whiteSpace=wrap;html=1;fillColor=#60a917;strokeColor=#2D7600;fontColor=#ffffff;direction=west;" vertex="1" parent="1">
          <mxGeometry x="980" y="3669.25" width="120" height="44.5" as="geometry" />
        </mxCell>
        <mxCell id="LVIn592RbWe3t4gDvWVq-141" value="&lt;div&gt;服务端打点平台&lt;/div&gt;——执行worker" style="rounded=0;whiteSpace=wrap;html=1;fillColor=#60a917;strokeColor=#2D7600;fontColor=#ffffff;direction=west;" vertex="1" parent="1">
          <mxGeometry x="980" y="3746.75" width="120" height="44.5" as="geometry" />
        </mxCell>
        <mxCell id="LVIn592RbWe3t4gDvWVq-142" value="" style="rounded=0;orthogonalLoop=1;jettySize=auto;html=1;entryX=0;entryY=0.5;entryDx=0;entryDy=0;exitX=1;exitY=0.5;exitDx=0;exitDy=0;" edge="1" parent="1" source="LVIn592RbWe3t4gDvWVq-138" target="LVIn592RbWe3t4gDvWVq-79">
          <mxGeometry relative="1" as="geometry">
            <mxPoint x="760" y="3123.5" as="sourcePoint" />
            <mxPoint x="1056" y="3431.5" as="targetPoint" />
          </mxGeometry>
        </mxCell>
        <mxCell id="LVIn592RbWe3t4gDvWVq-143" value="" style="rounded=0;orthogonalLoop=1;jettySize=auto;html=1;entryX=0;entryY=0.5;entryDx=0;entryDy=0;exitX=1;exitY=0.5;exitDx=0;exitDy=0;" edge="1" parent="1" source="LVIn592RbWe3t4gDvWVq-139" target="LVIn592RbWe3t4gDvWVq-84">
          <mxGeometry relative="1" as="geometry">
            <mxPoint x="860" y="3354" as="sourcePoint" />
            <mxPoint x="1125" y="3012" as="targetPoint" />
          </mxGeometry>
        </mxCell>
        <mxCell id="LVIn592RbWe3t4gDvWVq-144" value="" style="rounded=0;orthogonalLoop=1;jettySize=auto;html=1;entryX=0;entryY=0.5;entryDx=0;entryDy=0;exitX=1;exitY=0.5;exitDx=0;exitDy=0;" edge="1" parent="1" source="LVIn592RbWe3t4gDvWVq-140" target="LVIn592RbWe3t4gDvWVq-85">
          <mxGeometry relative="1" as="geometry">
            <mxPoint x="860" y="3395" as="sourcePoint" />
            <mxPoint x="1125" y="3053" as="targetPoint" />
          </mxGeometry>
        </mxCell>
        <mxCell id="LVIn592RbWe3t4gDvWVq-145" value="" style="rounded=0;orthogonalLoop=1;jettySize=auto;html=1;entryX=0;entryY=0.5;entryDx=0;entryDy=0;exitX=1;exitY=0.5;exitDx=0;exitDy=0;" edge="1" parent="1" source="LVIn592RbWe3t4gDvWVq-141" target="LVIn592RbWe3t4gDvWVq-105">
          <mxGeometry relative="1" as="geometry">
            <mxPoint x="860" y="3425" as="sourcePoint" />
            <mxPoint x="1125" y="3083" as="targetPoint" />
          </mxGeometry>
        </mxCell>
        <mxCell id="LVIn592RbWe3t4gDvWVq-146" value="" style="rounded=0;orthogonalLoop=1;jettySize=auto;html=1;exitX=1;exitY=0.5;exitDx=0;exitDy=0;entryX=0;entryY=0.5;entryDx=0;entryDy=0;edgeStyle=orthogonalEdgeStyle;" edge="1" parent="1" source="LVIn592RbWe3t4gDvWVq-102" target="LVIn592RbWe3t4gDvWVq-52">
          <mxGeometry x="0.0018" relative="1" as="geometry">
            <mxPoint x="914" y="1905" as="sourcePoint" />
            <mxPoint x="1405" y="1770" as="targetPoint" />
            <Array as="points">
              <mxPoint x="535" y="2094" />
              <mxPoint x="535" y="1768" />
            </Array>
            <mxPoint as="offset" />
          </mxGeometry>
        </mxCell>
        <mxCell id="LVIn592RbWe3t4gDvWVq-147" value="ga" style="rounded=0;whiteSpace=wrap;html=1;fillColor=#0050ef;fontColor=#ffffff;strokeColor=#001DBC;" vertex="1" parent="1">
          <mxGeometry x="337" y="1483" width="120" height="30" as="geometry" />
        </mxCell>
        <mxCell id="LVIn592RbWe3t4gDvWVq-148" value="appsflyer" style="rounded=0;whiteSpace=wrap;html=1;fillColor=#0050ef;fontColor=#ffffff;strokeColor=#001DBC;" vertex="1" parent="1">
          <mxGeometry x="337" y="1528" width="120" height="30" as="geometry" />
        </mxCell>
        <mxCell id="LVIn592RbWe3t4gDvWVq-149" value="" style="rounded=0;orthogonalLoop=1;jettySize=auto;html=1;exitX=1;exitY=0.5;exitDx=0;exitDy=0;entryX=0;entryY=0.5;entryDx=0;entryDy=0;" edge="1" parent="1" source="LVIn592RbWe3t4gDvWVq-165" target="LVIn592RbWe3t4gDvWVq-50">
          <mxGeometry relative="1" as="geometry">
            <mxPoint x="865" y="1410" as="sourcePoint" />
            <mxPoint x="1513" y="1394" as="targetPoint" />
          </mxGeometry>
        </mxCell>
        <mxCell id="LVIn592RbWe3t4gDvWVq-150" value="geo" style="rounded=0;whiteSpace=wrap;html=1;fillColor=#0050ef;fontColor=#ffffff;strokeColor=#001DBC;" vertex="1" parent="1">
          <mxGeometry x="338" y="1573" width="118" height="29" as="geometry" />
        </mxCell>
        <mxCell id="LVIn592RbWe3t4gDvWVq-151" value="" style="rounded=0;orthogonalLoop=1;jettySize=auto;html=1;entryX=0;entryY=0.5;entryDx=0;entryDy=0;exitX=1;exitY=0.5;exitDx=0;exitDy=0;" edge="1" parent="1" source="LVIn592RbWe3t4gDvWVq-150" target="LVIn592RbWe3t4gDvWVq-53">
          <mxGeometry x="0.0018" relative="1" as="geometry">
            <mxPoint x="1057" y="1705" as="sourcePoint" />
            <mxPoint x="1513" y="1473" as="targetPoint" />
            <mxPoint as="offset" />
          </mxGeometry>
        </mxCell>
        <mxCell id="LVIn592RbWe3t4gDvWVq-152" value="" style="rounded=0;orthogonalLoop=1;jettySize=auto;html=1;exitX=1;exitY=0.5;exitDx=0;exitDy=0;entryX=0;entryY=0.5;entryDx=0;entryDy=0;" edge="1" parent="1" source="LVIn592RbWe3t4gDvWVq-110" target="LVIn592RbWe3t4gDvWVq-63">
          <mxGeometry relative="1" as="geometry">
            <mxPoint x="808" y="2003" as="sourcePoint" />
            <mxPoint x="925" y="1960" as="targetPoint" />
          </mxGeometry>
        </mxCell>
        <mxCell id="LVIn592RbWe3t4gDvWVq-153" value="每日订单导出任务" style="rounded=0;whiteSpace=wrap;html=1;fillColor=#60a917;fontColor=#ffffff;strokeColor=#2D7600;" vertex="1" parent="1">
          <mxGeometry x="1340" y="2116" width="120" height="30" as="geometry" />
        </mxCell>
        <mxCell id="LVIn592RbWe3t4gDvWVq-154" value="每日退单导出任务" style="rounded=0;whiteSpace=wrap;html=1;fillColor=#60a917;fontColor=#ffffff;strokeColor=#2D7600;" vertex="1" parent="1">
          <mxGeometry x="1340" y="2161" width="120" height="30" as="geometry" />
        </mxCell>
        <mxCell id="LVIn592RbWe3t4gDvWVq-155" value="" style="rounded=0;orthogonalLoop=1;jettySize=auto;html=1;entryX=0;entryY=0.5;entryDx=0;entryDy=0;exitX=1;exitY=0.5;exitDx=0;exitDy=0;" edge="1" parent="1" source="LVIn592RbWe3t4gDvWVq-63" target="LVIn592RbWe3t4gDvWVq-154">
          <mxGeometry relative="1" as="geometry">
            <mxPoint x="1025" y="1960" as="sourcePoint" />
            <mxPoint x="1513" y="1600" as="targetPoint" />
          </mxGeometry>
        </mxCell>
        <mxCell id="LVIn592RbWe3t4gDvWVq-156" value="auth服务" style="rounded=0;whiteSpace=wrap;html=1;fillColor=#60a917;strokeColor=#2D7600;fontColor=#ffffff;" vertex="1" parent="1">
          <mxGeometry x="678.5" y="2144" width="120" height="60" as="geometry" />
        </mxCell>
        <mxCell id="LVIn592RbWe3t4gDvWVq-157" value="设备服务" style="rounded=0;whiteSpace=wrap;html=1;fillColor=#60a917;strokeColor=#2D7600;fontColor=#ffffff;" vertex="1" parent="1">
          <mxGeometry x="678.5" y="2223" width="120" height="60" as="geometry" />
        </mxCell>
        <mxCell id="LVIn592RbWe3t4gDvWVq-158" value="" style="rounded=0;orthogonalLoop=1;jettySize=auto;html=1;exitX=1;exitY=0.5;exitDx=0;exitDy=0;entryX=0;entryY=0.5;entryDx=0;entryDy=0;" edge="1" parent="1" source="LVIn592RbWe3t4gDvWVq-157" target="LVIn592RbWe3t4gDvWVq-63">
          <mxGeometry relative="1" as="geometry">
            <mxPoint x="809" y="2343" as="sourcePoint" />
            <mxPoint x="937" y="1968" as="targetPoint" />
          </mxGeometry>
        </mxCell>
        <mxCell id="LVIn592RbWe3t4gDvWVq-159" value="" style="rounded=0;orthogonalLoop=1;jettySize=auto;html=1;exitX=1;exitY=0.5;exitDx=0;exitDy=0;entryX=0;entryY=0.5;entryDx=0;entryDy=0;" edge="1" parent="1" source="LVIn592RbWe3t4gDvWVq-156" target="LVIn592RbWe3t4gDvWVq-63">
          <mxGeometry relative="1" as="geometry">
            <mxPoint x="819" y="2353" as="sourcePoint" />
            <mxPoint x="947" y="1978" as="targetPoint" />
          </mxGeometry>
        </mxCell>
        <mxCell id="LVIn592RbWe3t4gDvWVq-160" value="App Store" style="rounded=0;whiteSpace=wrap;html=1;fillColor=#0050ef;fontColor=#ffffff;strokeColor=#001DBC;" vertex="1" parent="1">
          <mxGeometry x="345" y="1985" width="120" height="60" as="geometry" />
        </mxCell>
        <mxCell id="LVIn592RbWe3t4gDvWVq-161" value="" style="rounded=0;orthogonalLoop=1;jettySize=auto;html=1;exitX=1;exitY=0.5;exitDx=0;exitDy=0;entryX=0;entryY=0.5;entryDx=0;entryDy=0;" edge="1" parent="1" source="LVIn592RbWe3t4gDvWVq-160" target="LVIn592RbWe3t4gDvWVq-163">
          <mxGeometry relative="1" as="geometry">
            <mxPoint x="475" y="2108" as="sourcePoint" />
            <mxPoint x="688" y="2109" as="targetPoint" />
          </mxGeometry>
        </mxCell>
        <mxCell id="LVIn592RbWe3t4gDvWVq-162" value="推送+每日拉取" style="edgeLabel;html=1;align=center;verticalAlign=middle;resizable=0;points=[];" vertex="1" connectable="0" parent="LVIn592RbWe3t4gDvWVq-161">
          <mxGeometry x="-0.2462" y="-4" relative="1" as="geometry">
            <mxPoint x="69" as="offset" />
          </mxGeometry>
        </mxCell>
        <mxCell id="LVIn592RbWe3t4gDvWVq-163" value="app store&lt;div&gt;订单数据接收&lt;/div&gt;" style="rounded=0;whiteSpace=wrap;html=1;fillColor=#60a917;strokeColor=#2D7600;fontColor=#ffffff;" vertex="1" parent="1">
          <mxGeometry x="678.5" y="1985" width="120" height="60" as="geometry" />
        </mxCell>
        <mxCell id="LVIn592RbWe3t4gDvWVq-164" value="" style="rounded=0;orthogonalLoop=1;jettySize=auto;html=1;entryX=0;entryY=0.5;entryDx=0;entryDy=0;exitX=1;exitY=0.25;exitDx=0;exitDy=0;" edge="1" parent="1" source="LVIn592RbWe3t4gDvWVq-163" target="LVIn592RbWe3t4gDvWVq-63">
          <mxGeometry relative="1" as="geometry">
            <mxPoint x="808" y="2095" as="sourcePoint" />
            <mxPoint x="937" y="2060" as="targetPoint" />
          </mxGeometry>
        </mxCell>
        <mxCell id="LVIn592RbWe3t4gDvWVq-165" value="iaa" style="rounded=0;whiteSpace=wrap;html=1;fillColor=#0050ef;fontColor=#ffffff;strokeColor=#001DBC;" vertex="1" parent="1">
          <mxGeometry x="338" y="1439" width="118" height="29" as="geometry" />
        </mxCell>
        <mxCell id="LVIn592RbWe3t4gDvWVq-166" value="每日安装收入明细数据拉取任务" style="rounded=0;whiteSpace=wrap;html=1;fillColor=#60a917;fontColor=#ffffff;strokeColor=#2D7600;" vertex="1" parent="1">
          <mxGeometry x="1340" y="1528" width="120" height="30" as="geometry" />
        </mxCell>
        <mxCell id="LVIn592RbWe3t4gDvWVq-167" value="每日新增用户导出任务" style="rounded=0;whiteSpace=wrap;html=1;fillColor=#60a917;fontColor=#ffffff;strokeColor=#2D7600;" vertex="1" parent="1">
          <mxGeometry x="1340" y="2024.5" width="120" height="30" as="geometry" />
        </mxCell>
        <mxCell id="LVIn592RbWe3t4gDvWVq-168" value="每日设备数据导出任务" style="rounded=0;whiteSpace=wrap;html=1;fillColor=#60a917;fontColor=#ffffff;strokeColor=#2D7600;" vertex="1" parent="1">
          <mxGeometry x="1340" y="2070" width="120" height="30" as="geometry" />
        </mxCell>
        <mxCell id="LVIn592RbWe3t4gDvWVq-169" value="" style="rounded=0;orthogonalLoop=1;jettySize=auto;html=1;exitX=1;exitY=0.5;exitDx=0;exitDy=0;entryX=0;entryY=0.5;entryDx=0;entryDy=0;" edge="1" parent="1" source="LVIn592RbWe3t4gDvWVq-63" target="LVIn592RbWe3t4gDvWVq-167">
          <mxGeometry relative="1" as="geometry">
            <mxPoint x="1037" y="1968" as="sourcePoint" />
            <mxPoint x="1513" y="1797" as="targetPoint" />
          </mxGeometry>
        </mxCell>
        <mxCell id="LVIn592RbWe3t4gDvWVq-170" value="" style="rounded=0;orthogonalLoop=1;jettySize=auto;html=1;exitX=1;exitY=0.5;exitDx=0;exitDy=0;entryX=0;entryY=0.5;entryDx=0;entryDy=0;" edge="1" parent="1" source="LVIn592RbWe3t4gDvWVq-63" target="LVIn592RbWe3t4gDvWVq-168">
          <mxGeometry relative="1" as="geometry">
            <mxPoint x="1047" y="1978" as="sourcePoint" />
            <mxPoint x="1523" y="1807" as="targetPoint" />
          </mxGeometry>
        </mxCell>
        <mxCell id="LVIn592RbWe3t4gDvWVq-171" value="每日订单明细数据拉取任务" style="rounded=0;whiteSpace=wrap;html=1;fillColor=#60a917;fontColor=#ffffff;strokeColor=#2D7600;" vertex="1" parent="1">
          <mxGeometry x="1340" y="1709" width="120" height="30" as="geometry" />
        </mxCell>
        <mxCell id="LVIn592RbWe3t4gDvWVq-172" value="" style="rounded=0;orthogonalLoop=1;jettySize=auto;html=1;entryX=0;entryY=0.5;entryDx=0;entryDy=0;exitX=1;exitY=0.5;exitDx=0;exitDy=0;edgeStyle=orthogonalEdgeStyle;" edge="1" parent="1" source="LVIn592RbWe3t4gDvWVq-102" target="LVIn592RbWe3t4gDvWVq-171">
          <mxGeometry x="0.0018" relative="1" as="geometry">
            <mxPoint x="475" y="2002" as="sourcePoint" />
            <mxPoint x="1513" y="1644" as="targetPoint" />
            <mxPoint as="offset" />
            <Array as="points">
              <mxPoint x="535" y="2094" />
              <mxPoint x="535" y="1724" />
            </Array>
          </mxGeometry>
        </mxCell>
        <mxCell id="LVIn592RbWe3t4gDvWVq-173" value="每日订单报告数据拉取任务" style="rounded=0;whiteSpace=wrap;html=1;fillColor=#60a917;fontColor=#ffffff;strokeColor=#2D7600;" vertex="1" parent="1">
          <mxGeometry x="1340" y="1665" width="120" height="30" as="geometry" />
        </mxCell>
        <mxCell id="LVIn592RbWe3t4gDvWVq-174" value="" style="rounded=0;orthogonalLoop=1;jettySize=auto;html=1;entryX=0;entryY=0.5;entryDx=0;entryDy=0;exitX=1;exitY=0.5;exitDx=0;exitDy=0;edgeStyle=orthogonalEdgeStyle;" edge="1" parent="1" source="LVIn592RbWe3t4gDvWVq-160" target="LVIn592RbWe3t4gDvWVq-173">
          <mxGeometry x="0.0018" relative="1" as="geometry">
            <mxPoint x="475" y="2002" as="sourcePoint" />
            <mxPoint x="1513" y="1588" as="targetPoint" />
            <mxPoint as="offset" />
            <Array as="points">
              <mxPoint x="515" y="2015" />
              <mxPoint x="515" y="1680" />
            </Array>
          </mxGeometry>
        </mxCell>
        <mxCell id="LVIn592RbWe3t4gDvWVq-175" value="" style="rounded=0;orthogonalLoop=1;jettySize=auto;html=1;entryX=0;entryY=0.5;entryDx=0;entryDy=0;exitX=1;exitY=0.5;exitDx=0;exitDy=0;" edge="1" parent="1" source="LVIn592RbWe3t4gDvWVq-148" target="LVIn592RbWe3t4gDvWVq-166">
          <mxGeometry x="0.0018" relative="1" as="geometry">
            <mxPoint x="474" y="1700" as="sourcePoint" />
            <mxPoint x="1513" y="1495" as="targetPoint" />
            <mxPoint as="offset" />
          </mxGeometry>
        </mxCell>
        <mxCell id="LVIn592RbWe3t4gDvWVq-176" value="每日收入数据拉取任务" style="rounded=0;whiteSpace=wrap;html=1;fillColor=#60a917;fontColor=#ffffff;strokeColor=#2D7600;" vertex="1" parent="1">
          <mxGeometry x="1340" y="1483" width="120" height="30" as="geometry" />
        </mxCell>
        <mxCell id="LVIn592RbWe3t4gDvWVq-177" value="" style="rounded=0;orthogonalLoop=1;jettySize=auto;html=1;entryX=0;entryY=0.5;entryDx=0;entryDy=0;exitX=1;exitY=0.5;exitDx=0;exitDy=0;" edge="1" parent="1" source="LVIn592RbWe3t4gDvWVq-147" target="LVIn592RbWe3t4gDvWVq-176">
          <mxGeometry x="0.0018" relative="1" as="geometry">
            <mxPoint x="465" y="1618" as="sourcePoint" />
            <mxPoint x="1513" y="1455" as="targetPoint" />
            <mxPoint as="offset" />
          </mxGeometry>
        </mxCell>
        <mxCell id="LVIn592RbWe3t4gDvWVq-178" value="每日报告数据拉取任务" style="rounded=0;whiteSpace=wrap;html=1;fillColor=#60a917;fontColor=#ffffff;strokeColor=#2D7600;" vertex="1" parent="1">
          <mxGeometry x="1340" y="1621.5" width="120" height="30" as="geometry" />
        </mxCell>
        <mxCell id="LVIn592RbWe3t4gDvWVq-179" value="" style="rounded=0;orthogonalLoop=1;jettySize=auto;html=1;exitX=1;exitY=0.5;exitDx=0;exitDy=0;entryX=0;entryY=0.5;entryDx=0;entryDy=0;edgeStyle=orthogonalEdgeStyle;" edge="1" parent="1" source="LVIn592RbWe3t4gDvWVq-101" target="LVIn592RbWe3t4gDvWVq-178">
          <mxGeometry relative="1" as="geometry">
            <mxPoint x="473" y="1510" as="sourcePoint" />
            <mxPoint x="1513" y="1375" as="targetPoint" />
            <Array as="points">
              <mxPoint x="495" y="1936" />
              <mxPoint x="495" y="1637" />
            </Array>
          </mxGeometry>
        </mxCell>
        <mxCell id="LVIn592RbWe3t4gDvWVq-180" value="" style="edgeStyle=orthogonalEdgeStyle;rounded=0;orthogonalLoop=1;jettySize=auto;html=1;" edge="1" parent="1" source="LVIn592RbWe3t4gDvWVq-182" target="LVIn592RbWe3t4gDvWVq-198">
          <mxGeometry relative="1" as="geometry" />
        </mxCell>
        <mxCell id="LVIn592RbWe3t4gDvWVq-181" value="" style="rounded=0;orthogonalLoop=1;jettySize=auto;html=1;entryX=0.5;entryY=0;entryDx=0;entryDy=0;exitX=0.5;exitY=1;exitDx=0;exitDy=0;edgeStyle=orthogonalEdgeStyle;" edge="1" parent="1" source="LVIn592RbWe3t4gDvWVq-182" target="LVIn592RbWe3t4gDvWVq-203">
          <mxGeometry relative="1" as="geometry">
            <Array as="points">
              <mxPoint x="1300" y="321" />
              <mxPoint x="1458" y="321" />
            </Array>
          </mxGeometry>
        </mxCell>
        <mxCell id="LVIn592RbWe3t4gDvWVq-182" value="Kafka" style="rounded=0;whiteSpace=wrap;html=1;" vertex="1" parent="1">
          <mxGeometry x="1270" y="221" width="60" height="80" as="geometry" />
        </mxCell>
        <mxCell id="LVIn592RbWe3t4gDvWVq-183" value="Kafka-GCP" style="fillColor=none;strokeColor=#5A6C86;verticalAlign=top;fontStyle=0;fontColor=#5A6C86;whiteSpace=wrap;html=1;" vertex="1" parent="1">
          <mxGeometry x="1840" y="3484" width="175" height="90" as="geometry" />
        </mxCell>
        <mxCell id="LVIn592RbWe3t4gDvWVq-184" value="&lt;p style=&quot;margin: 0px; font-variant-numeric: normal; font-variant-east-asian: normal; font-variant-alternates: normal; font-size-adjust: none; font-kerning: auto; font-optical-sizing: auto; font-feature-settings: normal; font-variation-settings: normal; font-variant-position: normal; font-variant-emoji: normal; font-stretch: normal; line-height: normal; text-align: start;&quot; class=&quot;p1&quot;&gt;order-event-resul&lt;span style=&quot;background-color: transparent; color: light-dark(rgb(0, 0, 0), rgb(255, 255, 255));&quot;&gt;t&lt;/span&gt;&lt;/p&gt;" style="rounded=0;whiteSpace=wrap;html=1;movable=1;resizable=1;rotatable=1;deletable=1;editable=1;locked=0;connectable=1;direction=west;" vertex="1" parent="1">
          <mxGeometry x="1865" y="3523" width="130" height="30" as="geometry" />
        </mxCell>
        <mxCell id="LVIn592RbWe3t4gDvWVq-185" value="&lt;span style=&quot;text-align: left;&quot;&gt;订单打点分发worker与通用worker的区别&lt;/span&gt;&lt;div style=&quot;text-align: left;&quot;&gt;1、增加了去重逻辑&lt;/div&gt;&lt;div style=&quot;text-align: left;&quot;&gt;2、会给请求端发送响应消息&lt;/div&gt;&lt;div style=&quot;text-align: left;&quot;&gt;3、为了隔离影响，单独部署一套&lt;/div&gt;" style="whiteSpace=wrap;html=1;rounded=1;arcSize=50;align=center;verticalAlign=middle;strokeWidth=1;autosize=1;spacing=4;treeFolding=1;treeMoving=1;newEdgeStyle={&quot;edgeStyle&quot;:&quot;entityRelationEdgeStyle&quot;,&quot;startArrow&quot;:&quot;none&quot;,&quot;endArrow&quot;:&quot;none&quot;,&quot;segment&quot;:10,&quot;curved&quot;:1,&quot;sourcePerimeterSpacing&quot;:0,&quot;targetPerimeterSpacing&quot;:0};direction=east;" vertex="1" parent="1">
          <mxGeometry x="1095" y="3369.5" width="260" height="80" as="geometry" />
        </mxCell>
        <mxCell id="LVIn592RbWe3t4gDvWVq-186" value="" style="edgeStyle=entityRelationEdgeStyle;startArrow=none;endArrow=none;segment=10;curved=1;sourcePerimeterSpacing=0;targetPerimeterSpacing=0;rounded=0;exitX=0.5;exitY=1;exitDx=0;exitDy=0;entryX=0;entryY=0.5;entryDx=0;entryDy=0;" edge="1" parent="1" source="LVIn592RbWe3t4gDvWVq-189" target="LVIn592RbWe3t4gDvWVq-185">
          <mxGeometry relative="1" as="geometry">
            <mxPoint x="433" y="3307" as="sourcePoint" />
          </mxGeometry>
        </mxCell>
        <mxCell id="LVIn592RbWe3t4gDvWVq-187" value="" style="rounded=0;orthogonalLoop=1;jettySize=auto;html=1;entryX=1;entryY=0.5;entryDx=0;entryDy=0;exitX=0.5;exitY=0;exitDx=0;exitDy=0;edgeStyle=orthogonalEdgeStyle;" edge="1" parent="1" source="LVIn592RbWe3t4gDvWVq-189" target="LVIn592RbWe3t4gDvWVq-183">
          <mxGeometry relative="1" as="geometry">
            <mxPoint x="3915" y="2420" as="sourcePoint" />
            <mxPoint x="4180" y="2149" as="targetPoint" />
            <Array as="points">
              <mxPoint x="1040" y="3970" />
              <mxPoint x="2085" y="3970" />
              <mxPoint x="2085" y="3529" />
            </Array>
          </mxGeometry>
        </mxCell>
        <mxCell id="LVIn592RbWe3t4gDvWVq-188" value="订单打点结果消息（订单打点新逻辑）" style="edgeLabel;html=1;align=center;verticalAlign=middle;resizable=0;points=[];" vertex="1" connectable="0" parent="LVIn592RbWe3t4gDvWVq-187">
          <mxGeometry x="0.4057" y="1" relative="1" as="geometry">
            <mxPoint as="offset" />
          </mxGeometry>
        </mxCell>
        <mxCell id="LVIn592RbWe3t4gDvWVq-189" value="" style="fillColor=none;strokeColor=#5A6C86;verticalAlign=top;fontStyle=0;fontColor=#5A6C86;whiteSpace=wrap;html=1;direction=west;" vertex="1" parent="1">
          <mxGeometry x="965" y="3499.66" width="150" height="307.34" as="geometry" />
        </mxCell>
        <mxCell id="LVIn592RbWe3t4gDvWVq-190" value="" style="rounded=0;orthogonalLoop=1;jettySize=auto;html=1;exitX=0;exitY=0.5;exitDx=0;exitDy=0;entryX=1;entryY=0.75;entryDx=0;entryDy=0;edgeStyle=orthogonalEdgeStyle;" edge="1" parent="1" source="LVIn592RbWe3t4gDvWVq-183" target="LVIn592RbWe3t4gDvWVq-110">
          <mxGeometry relative="1" as="geometry">
            <mxPoint x="2052.23" y="2954" as="sourcePoint" />
            <mxPoint x="2052.23" y="2730" as="targetPoint" />
            <Array as="points">
              <mxPoint x="1755" y="3529" />
              <mxPoint x="1755" y="2348" />
            </Array>
          </mxGeometry>
        </mxCell>
        <mxCell id="LVIn592RbWe3t4gDvWVq-191" value="&lt;div&gt;xxSink程序&lt;/div&gt;" style="rounded=0;whiteSpace=wrap;html=1;fillColor=#d5e8d4;strokeColor=#82b366;" vertex="1" parent="1">
          <mxGeometry x="2305" y="2192.5" width="120" height="60" as="geometry" />
        </mxCell>
        <mxCell id="LVIn592RbWe3t4gDvWVq-192" value="" style="edgeStyle=orthogonalEdgeStyle;rounded=0;orthogonalLoop=1;jettySize=auto;html=1;exitX=1;exitY=0.5;exitDx=0;exitDy=0;entryX=0;entryY=0.5;entryDx=0;entryDy=0;" edge="1" parent="1" source="LVIn592RbWe3t4gDvWVq-2" target="LVIn592RbWe3t4gDvWVq-191">
          <mxGeometry relative="1" as="geometry">
            <mxPoint x="1935" y="2483.5" as="sourcePoint" />
            <mxPoint x="2315" y="2088.5" as="targetPoint" />
          </mxGeometry>
        </mxCell>
        <mxCell id="LVIn592RbWe3t4gDvWVq-193" value="" style="edgeStyle=orthogonalEdgeStyle;rounded=0;orthogonalLoop=1;jettySize=auto;html=1;exitX=1;exitY=0.5;exitDx=0;exitDy=0;entryX=0;entryY=0.5;entryDx=0;entryDy=0;" edge="1" parent="1" source="LVIn592RbWe3t4gDvWVq-191" target="LVIn592RbWe3t4gDvWVq-21">
          <mxGeometry relative="1" as="geometry">
            <mxPoint x="2435" y="2077.5" as="sourcePoint" />
            <mxPoint x="2538" y="2078.5" as="targetPoint" />
          </mxGeometry>
        </mxCell>
        <mxCell id="LVIn592RbWe3t4gDvWVq-194" value="" style="edgeStyle=orthogonalEdgeStyle;rounded=0;orthogonalLoop=1;jettySize=auto;html=1;entryX=0.5;entryY=0;entryDx=0;entryDy=0;exitX=0.5;exitY=1;exitDx=0;exitDy=0;dashed=1;" edge="1" parent="1" source="LVIn592RbWe3t4gDvWVq-196" target="LVIn592RbWe3t4gDvWVq-207">
          <mxGeometry relative="1" as="geometry" />
        </mxCell>
        <mxCell id="LVIn592RbWe3t4gDvWVq-195" value="" style="edgeStyle=orthogonalEdgeStyle;rounded=0;orthogonalLoop=1;jettySize=auto;html=1;" edge="1" parent="1" source="LVIn592RbWe3t4gDvWVq-196" target="LVIn592RbWe3t4gDvWVq-182">
          <mxGeometry relative="1" as="geometry" />
        </mxCell>
        <mxCell id="LVIn592RbWe3t4gDvWVq-196" value="业务系统Apps" style="rounded=0;whiteSpace=wrap;html=1;" vertex="1" parent="1">
          <mxGeometry x="1080" y="221" width="125" height="80" as="geometry" />
        </mxCell>
        <mxCell id="LVIn592RbWe3t4gDvWVq-197" value="" style="edgeStyle=orthogonalEdgeStyle;rounded=0;orthogonalLoop=1;jettySize=auto;html=1;" edge="1" parent="1" source="LVIn592RbWe3t4gDvWVq-198" target="LVIn592RbWe3t4gDvWVq-200">
          <mxGeometry relative="1" as="geometry" />
        </mxCell>
        <mxCell id="LVIn592RbWe3t4gDvWVq-198" value="数据处理" style="rounded=0;whiteSpace=wrap;html=1;" vertex="1" parent="1">
          <mxGeometry x="1395" y="221" width="125" height="80" as="geometry" />
        </mxCell>
        <mxCell id="LVIn592RbWe3t4gDvWVq-199" value="" style="edgeStyle=orthogonalEdgeStyle;rounded=0;orthogonalLoop=1;jettySize=auto;html=1;" edge="1" parent="1" source="LVIn592RbWe3t4gDvWVq-200" target="LVIn592RbWe3t4gDvWVq-201">
          <mxGeometry relative="1" as="geometry" />
        </mxCell>
        <mxCell id="LVIn592RbWe3t4gDvWVq-200" value="数据中心" style="rounded=0;whiteSpace=wrap;html=1;" vertex="1" parent="1">
          <mxGeometry x="1590" y="221" width="125" height="80" as="geometry" />
        </mxCell>
        <mxCell id="LVIn592RbWe3t4gDvWVq-201" value="BI" style="rounded=0;whiteSpace=wrap;html=1;" vertex="1" parent="1">
          <mxGeometry x="1788" y="221" width="125" height="80" as="geometry" />
        </mxCell>
        <mxCell id="LVIn592RbWe3t4gDvWVq-202" value="" style="edgeStyle=orthogonalEdgeStyle;rounded=0;orthogonalLoop=1;jettySize=auto;html=1;" edge="1" parent="1" source="LVIn592RbWe3t4gDvWVq-203" target="LVIn592RbWe3t4gDvWVq-207">
          <mxGeometry relative="1" as="geometry" />
        </mxCell>
        <mxCell id="LVIn592RbWe3t4gDvWVq-203" value="业务事件处理" style="rounded=0;whiteSpace=wrap;html=1;" vertex="1" parent="1">
          <mxGeometry x="1395" y="381" width="125" height="80" as="geometry" />
        </mxCell>
        <mxCell id="LVIn592RbWe3t4gDvWVq-204" value="" style="edgeStyle=orthogonalEdgeStyle;rounded=0;orthogonalLoop=1;jettySize=auto;html=1;" edge="1" parent="1" source="LVIn592RbWe3t4gDvWVq-205" target="LVIn592RbWe3t4gDvWVq-209">
          <mxGeometry relative="1" as="geometry" />
        </mxCell>
        <mxCell id="LVIn592RbWe3t4gDvWVq-205" value="业务系统Apps" style="rounded=0;whiteSpace=wrap;html=1;" vertex="1" parent="1">
          <mxGeometry x="1080" y="381" width="125" height="80" as="geometry" />
        </mxCell>
        <mxCell id="LVIn592RbWe3t4gDvWVq-206" value="" style="edgeStyle=orthogonalEdgeStyle;rounded=0;orthogonalLoop=1;jettySize=auto;html=1;" edge="1" parent="1" source="LVIn592RbWe3t4gDvWVq-207" target="LVIn592RbWe3t4gDvWVq-205">
          <mxGeometry relative="1" as="geometry" />
        </mxCell>
        <mxCell id="LVIn592RbWe3t4gDvWVq-207" value="Kafka" style="rounded=0;whiteSpace=wrap;html=1;" vertex="1" parent="1">
          <mxGeometry x="1270" y="381" width="60" height="80" as="geometry" />
        </mxCell>
        <mxCell id="LVIn592RbWe3t4gDvWVq-208" value="" style="edgeStyle=orthogonalEdgeStyle;rounded=0;orthogonalLoop=1;jettySize=auto;html=1;entryX=1;entryY=0.5;entryDx=0;entryDy=0;exitX=0.5;exitY=1;exitDx=0;exitDy=0;dashed=1;" edge="1" parent="1" source="LVIn592RbWe3t4gDvWVq-200" target="LVIn592RbWe3t4gDvWVq-203">
          <mxGeometry relative="1" as="geometry">
            <mxPoint x="1153" y="311" as="sourcePoint" />
            <mxPoint x="1310" y="391" as="targetPoint" />
          </mxGeometry>
        </mxCell>
        <mxCell id="LVIn592RbWe3t4gDvWVq-209" value="外部系统" style="rounded=0;whiteSpace=wrap;html=1;fillColor=#0050ef;fontColor=#ffffff;strokeColor=#001DBC;" vertex="1" parent="1">
          <mxGeometry x="875" y="401" width="125" height="40" as="geometry" />
        </mxCell>
        <mxCell id="LVIn592RbWe3t4gDvWVq-210" value="" style="edgeStyle=orthogonalEdgeStyle;rounded=0;orthogonalLoop=1;jettySize=auto;html=1;" edge="1" parent="1" source="LVIn592RbWe3t4gDvWVq-211" target="LVIn592RbWe3t4gDvWVq-196">
          <mxGeometry relative="1" as="geometry" />
        </mxCell>
        <mxCell id="LVIn592RbWe3t4gDvWVq-211" value="client" style="rounded=0;whiteSpace=wrap;html=1;fillColor=#0050ef;fontColor=#ffffff;strokeColor=#001DBC;" vertex="1" parent="1">
          <mxGeometry x="875" y="270" width="125" height="40" as="geometry" />
        </mxCell>
        <mxCell id="LVIn592RbWe3t4gDvWVq-212" value="" style="edgeStyle=orthogonalEdgeStyle;rounded=0;orthogonalLoop=1;jettySize=auto;html=1;" edge="1" parent="1" source="LVIn592RbWe3t4gDvWVq-213" target="LVIn592RbWe3t4gDvWVq-196">
          <mxGeometry relative="1" as="geometry" />
        </mxCell>
        <mxCell id="LVIn592RbWe3t4gDvWVq-213" value="外部系统" style="rounded=0;whiteSpace=wrap;html=1;fillColor=#0050ef;fontColor=#ffffff;strokeColor=#001DBC;" vertex="1" parent="1">
          <mxGeometry x="875" y="210" width="125" height="40" as="geometry" />
        </mxCell>
        <mxCell id="LVIn592RbWe3t4gDvWVq-214" value="" style="edgeStyle=orthogonalEdgeStyle;rounded=0;orthogonalLoop=1;jettySize=auto;html=1;" edge="1" parent="1">
          <mxGeometry relative="1" as="geometry">
            <mxPoint x="935" y="640" as="sourcePoint" />
            <mxPoint x="1000" y="640" as="targetPoint" />
          </mxGeometry>
        </mxCell>
        <mxCell id="LVIn592RbWe3t4gDvWVq-215" value="主数据流" style="edgeLabel;html=1;align=center;verticalAlign=middle;resizable=0;points=[];" vertex="1" connectable="0" parent="LVIn592RbWe3t4gDvWVq-214">
          <mxGeometry x="0.6852" y="-2" relative="1" as="geometry">
            <mxPoint x="38" y="-1" as="offset" />
          </mxGeometry>
        </mxCell>
        <mxCell id="LVIn592RbWe3t4gDvWVq-216" value="" style="edgeStyle=orthogonalEdgeStyle;rounded=0;orthogonalLoop=1;jettySize=auto;html=1;dashed=1;" edge="1" parent="1">
          <mxGeometry relative="1" as="geometry">
            <mxPoint x="935" y="670" as="sourcePoint" />
            <mxPoint x="1000" y="670" as="targetPoint" />
          </mxGeometry>
        </mxCell>
        <mxCell id="LVIn592RbWe3t4gDvWVq-217" value="可能的分支数据流" style="edgeLabel;html=1;align=center;verticalAlign=middle;resizable=0;points=[];" vertex="1" connectable="0" parent="LVIn592RbWe3t4gDvWVq-216">
          <mxGeometry x="-0.0012" y="-1" relative="1" as="geometry">
            <mxPoint x="82" as="offset" />
          </mxGeometry>
        </mxCell>
        <mxCell id="LVIn592RbWe3t4gDvWVq-218" value="" style="edgeStyle=orthogonalEdgeStyle;rounded=0;orthogonalLoop=1;jettySize=auto;html=1;entryX=0;entryY=0.75;entryDx=0;entryDy=0;exitX=1;exitY=0.25;exitDx=0;exitDy=0;dashed=1;" edge="1" parent="1" source="LVIn592RbWe3t4gDvWVq-207" target="LVIn592RbWe3t4gDvWVq-198">
          <mxGeometry relative="1" as="geometry">
            <mxPoint x="1335" y="400" as="sourcePoint" />
            <mxPoint x="1405" y="271" as="targetPoint" />
          </mxGeometry>
        </mxCell>
      </root>
    </mxGraphModel>
  </diagram>
</mxfile>
